<svg width="29" height="30" viewBox="0 0 29 30" fill="none" xmlns="http://www.w3.org/2000/svg">
<g id="paperclip">
<path id="Vector" d="M25.5873 13.7952L14.704 24.6785C13.3707 26.0118 11.5624 26.7608 9.67686 26.7608C7.79131 26.7608 5.98299 26.0118 4.6497 24.6785C3.31641 23.3452 2.56738 21.5369 2.56738 19.6513C2.56738 17.7658 3.31641 15.9575 4.6497 14.6242L15.533 3.74088C16.4219 2.85202 17.6274 2.35267 18.8844 2.35267C20.1415 2.35267 21.347 2.85202 22.2359 3.74088C23.1247 4.62974 23.6241 5.83529 23.6241 7.09232C23.6241 8.34935 23.1247 9.5549 22.2359 10.4438L11.3407 21.3271C10.8963 21.7715 10.2935 22.0212 9.66502 22.0212C9.0365 22.0212 8.43373 21.7715 7.9893 21.3271C7.54487 20.8826 7.29519 20.2799 7.29519 19.6513C7.29519 19.0228 7.54487 18.42 7.9893 17.9756L18.0436 7.93314" stroke="#002157" stroke-opacity="0.3" stroke-width="2.36851" stroke-linecap="round" stroke-linejoin="round"/>
</g>
</svg>
