<svg width="30" stroke="currentColor" stroke-opacity="0.5" height="30" viewBox="0 0 30 30" fill="none" xmlns="http://www.w3.org/2000/svg">
<g id="hide" clip-path="url(#clip0_3696_57)">
<path id="Vector" d="M22.3543 22.3543C20.2378 23.9675 17.6608 24.8613 15 24.9048C6.3333 24.9048 1.38092 15 1.38092 15C2.92097 12.13 5.05699 9.62247 7.64568 7.64571M12.4 5.39238C13.2522 5.1929 14.1247 5.09318 15 5.09524C23.6666 5.09524 28.619 15 28.619 15C27.8675 16.406 26.9712 17.7297 25.9447 18.9495M17.6247 17.6248C17.2847 17.9897 16.8746 18.2824 16.419 18.4854C15.9634 18.6884 15.4716 18.7976 14.9728 18.8064C14.4741 18.8152 13.9787 18.7234 13.5162 18.5366C13.0538 18.3498 12.6336 18.0718 12.2809 17.719C11.9282 17.3663 11.6502 16.9462 11.4634 16.4837C11.2766 16.0212 11.1848 15.5258 11.1936 15.0271C11.2024 14.5284 11.3116 14.0366 11.5146 13.581C11.7176 13.1253 12.0103 12.7153 12.3752 12.3752" stroke-width="2.47619" stroke-linecap="round" stroke-linejoin="round"/>
<path id="Vector_2" d="M1.38092 1.38096L28.619 28.6191"  stroke-width="2.47619" stroke-linecap="round" stroke-linejoin="round"/>
</g>
<defs>
<clipPath id="clip0_3696_57">
<rect width="29.7143" height="29.7143" fill="white" transform="translate(0.142883 0.142853)"/>
</clipPath>
</defs>
</svg>
