<svg width="20" height="20" viewBox="0 0 20 20" fill="none" xmlns="http://www.w3.org/2000/svg">
<g clip-path="url(#clip0_18_192)">
<path d="M18.3334 4.31663L8.82502 13.8333L5.29169 10.3L6.46669 9.12496L8.82502 11.4833L17.1584 3.14996L18.3334 4.31663ZM10 16.6666C6.32502 16.6666 3.33335 13.675 3.33335 9.99996C3.33335 6.32496 6.32502 3.33329 10 3.33329C11.3084 3.33329 12.5334 3.71663 13.5667 4.37496L14.775 3.16663C13.3742 2.19014 11.7076 1.66661 10 1.66663C5.40002 1.66663 1.66669 5.39996 1.66669 9.99996C1.66669 14.6 5.40002 18.3333 10 18.3333C11.4417 18.3333 12.8 17.9666 13.9834 17.3166L12.7334 16.0666C11.9 16.45 10.975 16.6666 10 16.6666ZM15.8334 12.5H13.3334V14.1666H15.8334V16.6666H17.5V14.1666H20V12.5H17.5V9.99996H15.8334V12.5Z" fill="#A4ABC5"/>
</g>
<defs>
<clipPath id="clip0_18_192">
<rect width="20" height="20" fill="white"/>
</clipPath>
</defs>
</svg>
