<svg width="14" height="14" viewBox="0 0 14 14" fill="none" xmlns="http://www.w3.org/2000/svg">
<path d="M9.2929 5.20721C10.8099 6.72579 10.7891 9.16047 9.30204 10.6558C9.29924 10.6588 9.29594 10.6621 9.2929 10.6652L7.58665 12.3714C6.08174 13.8763 3.63335 13.8761 2.12868 12.3714C0.623774 10.8668 0.623774 8.4181 2.12868 6.91346L3.07082 5.97131C3.32067 5.72147 3.75093 5.88752 3.76383 6.2406C3.78029 6.69058 3.86098 7.14266 4.00987 7.57922C4.06029 7.72705 4.02427 7.89056 3.91382 8.00101L3.58153 8.3333C2.86993 9.0449 2.84761 10.2036 3.5522 10.9221C4.26375 11.6478 5.43329 11.6521 6.1503 10.9351L7.85655 9.22908C8.57233 8.51329 8.56934 7.35634 7.85655 6.64355C7.76258 6.54976 7.66792 6.47689 7.59398 6.42598C7.54168 6.39006 7.49849 6.34242 7.46786 6.28684C7.43724 6.23127 7.42002 6.16931 7.4176 6.10591C7.40754 5.8376 7.5026 5.56113 7.71461 5.34911L8.24919 4.81451C8.38937 4.67433 8.60928 4.65712 8.77183 4.77056C8.95799 4.90055 9.13235 5.04666 9.2929 5.20721ZM12.8713 1.6286C11.3666 0.123901 8.91826 0.123698 7.41336 1.6286L5.7071 3.33485C5.70406 3.3379 5.70076 3.3412 5.69796 3.34424C4.21094 4.83955 4.19009 7.27423 5.7071 8.79282C5.86764 8.95336 6.042 9.09946 6.22815 9.22944C6.3907 9.34288 6.61063 9.32564 6.75079 9.18548L7.28536 8.65089C7.49737 8.43887 7.59243 8.1624 7.58238 7.89409C7.57995 7.83069 7.56274 7.76873 7.53211 7.71316C7.50149 7.65758 7.4583 7.60994 7.40599 7.57402C7.33205 7.52311 7.2374 7.45024 7.14343 7.35645C6.43064 6.64365 6.42764 5.48671 7.14343 4.77092L8.84968 3.06492C9.56668 2.34792 10.7362 2.35223 11.4478 3.07787C12.1524 3.79643 12.1301 4.9551 11.4184 5.6667L11.0862 5.99899C10.9757 6.10944 10.9397 6.27295 10.9901 6.42078C11.139 6.85734 11.2197 7.30942 11.2361 7.75939C11.2491 8.11248 11.6793 8.27853 11.9292 8.02869L12.8713 7.08654C14.3762 5.58192 14.3762 3.13325 12.8713 1.6286Z" fill="#8791B2" stroke="white" stroke-width="0.361111"/>
</svg>
