<svg width="63" height="76" viewBox="0 0 63 76" fill="none" xmlns="http://www.w3.org/2000/svg">
<g clip-path="url(#clip0_338_9254)">
<path d="M62.3569 70.5156C62.3569 73.4289 59.9733 75.8125 57.0601 75.8125H5.85693C2.94365 75.8125 0.560059 73.4289 0.560059 70.5156V38.7344C0.560059 35.8211 2.94365 33.4375 5.85693 33.4375H57.0601C59.9733 33.4375 62.3569 35.8211 62.3569 38.7344V70.5156Z" fill="#282B5A"/>
<path d="M38.0295 58.0994L34.759 59.3004L36.5696 62.7884L40.469 62.7839L38.0295 58.0994Z" fill="white"/>
<path d="M31.2334 45L22 62.7838H25.9016L31.2322 52.5061L33.1542 56.2089L36.4246 55.0078L31.2334 45Z" fill="white"/>
<path d="M25.8931 62.7897L28.3951 57.9723L40.0425 53.5422L25.8931 62.7897Z" fill="#6D5DF3"/>
<path d="M45.5835 33.5H50.8804V20.1953C50.8804 9.48591 42.1679 0.773438 31.4585 0.773438C20.7491 0.773438 12.0366 9.48591 12.0366 20.1953V33.4375H17.3335V20.1953C17.3335 12.4071 23.6703 6.07031 31.4585 6.07031C39.2467 6.07031 45.5835 12.4071 45.5835 20.1953V33.5Z" fill="#A4ABC5"/>
<path d="M31.4585 0.773438C20.7491 0.773438 12.0366 9.48591 12.0366 20.1953V22.8438C13.4986 22.8438 14.6851 21.6581 14.6851 20.1953C14.6851 10.9461 22.2093 3.42188 31.4585 3.42188C40.7077 3.42188 48.2319 10.9461 48.2319 20.1953C48.2319 21.6581 49.4184 22.8438 50.8804 22.8438V20.1953C50.8804 9.48591 42.1679 0.773438 31.4585 0.773438Z" fill="#D4D4DE"/>
<path d="M62.3569 37.8516H0.560059V41.3828H62.3569V37.8516Z" fill="#6D5DF3"/>
<path d="M62.3569 67.8672H0.560059V71.3984H62.3569V67.8672Z" fill="#6D5DF3"/>
<path d="M17.3335 32.5547H12.0366V33.4375H17.3335V32.5547Z" fill="#D4D4DE"/>
</g>
<defs>
<clipPath id="clip0_338_9254">
<rect width="63" height="76" fill="white"/>
</clipPath>
</defs>
</svg>
