<svg width="11" height="17" viewBox="0 0 11 17" fill="none" xmlns="http://www.w3.org/2000/svg">
<path d="M9.80469 0.150391H1.19531C0.540332 0.150391 0.0078125 0.68291 0.0078125 1.33789V15.5879C0.0078125 16.2429 0.540332 16.7754 1.19531 16.7754H9.80469C10.4597 16.7754 10.9922 16.2429 10.9922 15.5879V1.33789C10.9922 0.68291 10.4597 0.150391 9.80469 0.150391ZM9.65625 15.4395H1.34375V1.48633H9.65625V15.4395ZM4.75781 13.5469C4.75781 13.7437 4.83601 13.9325 4.97519 14.0717C5.11438 14.2109 5.30316 14.2891 5.5 14.2891C5.69684 14.2891 5.88562 14.2109 6.02481 14.0717C6.16399 13.9325 6.24219 13.7437 6.24219 13.5469C6.24219 13.35 6.16399 13.1613 6.02481 13.0221C5.88562 12.8829 5.69684 12.8047 5.5 12.8047C5.30316 12.8047 5.11438 12.8829 4.97519 13.0221C4.83601 13.1613 4.75781 13.35 4.75781 13.5469Z" fill="#8791B2"/>
</svg>
