<svg width="504" height="394" viewBox="0 0 504 394" fill="none" xmlns="http://www.w3.org/2000/svg">
<g opacity="0.7" filter="url(#filter0_f_7993_1234)">
<ellipse cx="244.5" cy="197" rx="165.5" ry="123" fill="#6D5DF3"/>
</g>
<g filter="url(#filter1_d_7993_1234)">
<g filter="url(#filter2_d_7993_1234)">
<rect x="108" y="50" width="312" height="201" rx="16.34" fill="white"/>
<rect x="108.891" y="50.8907" width="310.219" height="199.219" rx="15.4493" stroke="#6D5DF3" stroke-opacity="0.07" stroke-width="1.78149"/>
</g>
<path d="M130 69C130 71.7614 127.761 74 125 74C122.239 74 120 71.7614 120 69C120 66.2386 122.239 64 125 64C127.761 64 130 66.2386 130 69Z" fill="#D9D9D9"/>
<path d="M130 69C130 71.7614 127.761 74 125 74C122.239 74 120 71.7614 120 69C120 66.2386 122.239 64 125 64C127.761 64 130 66.2386 130 69Z" fill="url(#paint0_linear_7993_1234)"/>
<path d="M144 69C144 71.7614 141.761 74 139 74C136.239 74 134 71.7614 134 69C134 66.2386 136.239 64 139 64C141.761 64 144 66.2386 144 69Z" fill="#D9D9D9"/>
<path d="M144 69C144 71.7614 141.761 74 139 74C136.239 74 134 71.7614 134 69C134 66.2386 136.239 64 139 64C141.761 64 144 66.2386 144 69Z" fill="url(#paint1_linear_7993_1234)"/>
<path d="M158 69C158 71.7614 155.761 74 153 74C150.239 74 148 71.7614 148 69C148 66.2386 150.239 64 153 64C155.761 64 158 66.2386 158 69Z" fill="#D9D9D9"/>
<path d="M158 69C158 71.7614 155.761 74 153 74C150.239 74 148 71.7614 148 69C148 66.2386 150.239 64 153 64C155.761 64 158 66.2386 158 69Z" fill="url(#paint2_linear_7993_1234)"/>
<path d="M353 69C353 66.2386 355.239 64 358 64H405C407.761 64 410 66.2386 410 69C410 71.7614 407.761 74 405 74H358C355.239 74 353 71.7614 353 69Z" fill="#D9D9D9"/>
<path d="M353 69C353 66.2386 355.239 64 358 64H405C407.761 64 410 66.2386 410 69C410 71.7614 407.761 74 405 74H358C355.239 74 353 71.7614 353 69Z" fill="url(#paint3_linear_7993_1234)"/>
<rect x="109" y="84" width="311" height="2" fill="#F5F3FE"/>
</g>
<g filter="url(#filter3_d_7993_1234)">
<g filter="url(#filter4_d_7993_1234)">
<rect x="20" y="94" width="312" height="201" rx="16.34" fill="white"/>
<rect x="20.8907" y="94.8907" width="310.219" height="199.219" rx="15.4493" stroke="#6D5DF3" stroke-opacity="0.07" stroke-width="1.78149"/>
</g>
<path d="M42 113C42 115.761 39.7614 118 37 118C34.2386 118 32 115.761 32 113C32 110.239 34.2386 108 37 108C39.7614 108 42 110.239 42 113Z" fill="#D9D9D9"/>
<path d="M42 113C42 115.761 39.7614 118 37 118C34.2386 118 32 115.761 32 113C32 110.239 34.2386 108 37 108C39.7614 108 42 110.239 42 113Z" fill="url(#paint4_linear_7993_1234)"/>
<path d="M56 113C56 115.761 53.7614 118 51 118C48.2386 118 46 115.761 46 113C46 110.239 48.2386 108 51 108C53.7614 108 56 110.239 56 113Z" fill="#D9D9D9"/>
<path d="M56 113C56 115.761 53.7614 118 51 118C48.2386 118 46 115.761 46 113C46 110.239 48.2386 108 51 108C53.7614 108 56 110.239 56 113Z" fill="url(#paint5_linear_7993_1234)"/>
<path d="M70 113C70 115.761 67.7614 118 65 118C62.2386 118 60 115.761 60 113C60 110.239 62.2386 108 65 108C67.7614 108 70 110.239 70 113Z" fill="#D9D9D9"/>
<path d="M70 113C70 115.761 67.7614 118 65 118C62.2386 118 60 115.761 60 113C60 110.239 62.2386 108 65 108C67.7614 108 70 110.239 70 113Z" fill="url(#paint6_linear_7993_1234)"/>
<path d="M265 113C265 110.239 267.239 108 270 108H317C319.761 108 322 110.239 322 113C322 115.761 319.761 118 317 118H270C267.239 118 265 115.761 265 113Z" fill="#D9D9D9"/>
<path d="M265 113C265 110.239 267.239 108 270 108H317C319.761 108 322 110.239 322 113C322 115.761 319.761 118 317 118H270C267.239 118 265 115.761 265 113Z" fill="url(#paint7_linear_7993_1234)"/>
<rect x="21" y="128" width="311" height="2" fill="#F5F3FE"/>
</g>
<g filter="url(#filter5_d_7993_1234)">
<g filter="url(#filter6_d_7993_1234)">
<rect x="172" y="137" width="312" height="201" rx="16.34" fill="white"/>
<rect x="172.891" y="137.891" width="310.219" height="199.219" rx="15.4493" stroke="#6D5DF3" stroke-opacity="0.07" stroke-width="1.78149"/>
</g>
<path d="M194 156C194 158.761 191.761 161 189 161C186.239 161 184 158.761 184 156C184 153.239 186.239 151 189 151C191.761 151 194 153.239 194 156Z" fill="#D9D9D9"/>
<path d="M194 156C194 158.761 191.761 161 189 161C186.239 161 184 158.761 184 156C184 153.239 186.239 151 189 151C191.761 151 194 153.239 194 156Z" fill="url(#paint8_linear_7993_1234)"/>
<path d="M208 156C208 158.761 205.761 161 203 161C200.239 161 198 158.761 198 156C198 153.239 200.239 151 203 151C205.761 151 208 153.239 208 156Z" fill="#D9D9D9"/>
<path d="M208 156C208 158.761 205.761 161 203 161C200.239 161 198 158.761 198 156C198 153.239 200.239 151 203 151C205.761 151 208 153.239 208 156Z" fill="url(#paint9_linear_7993_1234)"/>
<path d="M222 156C222 158.761 219.761 161 217 161C214.239 161 212 158.761 212 156C212 153.239 214.239 151 217 151C219.761 151 222 153.239 222 156Z" fill="#D9D9D9"/>
<path d="M222 156C222 158.761 219.761 161 217 161C214.239 161 212 158.761 212 156C212 153.239 214.239 151 217 151C219.761 151 222 153.239 222 156Z" fill="url(#paint10_linear_7993_1234)"/>
<path d="M417 156C417 153.239 419.239 151 422 151H469C471.761 151 474 153.239 474 156C474 158.761 471.761 161 469 161H422C419.239 161 417 158.761 417 156Z" fill="#D9D9D9"/>
<path d="M417 156C417 153.239 419.239 151 422 151H469C471.761 151 474 153.239 474 156C474 158.761 471.761 161 469 161H422C419.239 161 417 158.761 417 156Z" fill="url(#paint11_linear_7993_1234)"/>
<rect x="173" y="171" width="311" height="2" fill="#F5F3FE"/>
</g>
<path opacity="0.67" d="M127.609 329.575L125.266 305.313L129.383 304.915L131.726 329.177L127.609 329.575ZM116.564 320.475L116.166 316.358L140.429 314.015L140.826 318.132L116.564 320.475Z" fill="#6D5DF3"/>
<path opacity="0.67" d="M447.846 129.757L442.91 105.887L446.96 105.049L451.897 128.919L447.846 129.757ZM435.887 121.897L435.049 117.846L458.919 112.91L459.757 116.96L435.887 121.897Z" fill="#6D5DF3"/>
<path opacity="0.67" d="M85.0617 81.3144L87.6585 57.0781L91.7714 57.5188L89.1745 81.755L85.0617 81.3144ZM76.078 70.1746L76.5187 66.0617L100.755 68.6586L100.314 72.7714L76.078 70.1746Z" fill="#6D5DF3"/>
<defs>
<filter id="filter0_f_7993_1234" x="5.66" y="0.660004" width="477.68" height="392.68" filterUnits="userSpaceOnUse" color-interpolation-filters="sRGB">
<feFlood flood-opacity="0" result="BackgroundImageFix"/>
<feBlend mode="normal" in="SourceGraphic" in2="BackgroundImageFix" result="shape"/>
<feGaussianBlur stdDeviation="36.67" result="effect1_foregroundBlur_7993_1234"/>
</filter>
<filter id="filter1_d_7993_1234" x="93" y="35" width="342" height="231" filterUnits="userSpaceOnUse" color-interpolation-filters="sRGB">
<feFlood flood-opacity="0" result="BackgroundImageFix"/>
<feColorMatrix in="SourceAlpha" type="matrix" values="0 0 0 0 0 0 0 0 0 0 0 0 0 0 0 0 0 0 127 0" result="hardAlpha"/>
<feOffset/>
<feGaussianBlur stdDeviation="7.5"/>
<feComposite in2="hardAlpha" operator="out"/>
<feColorMatrix type="matrix" values="0 0 0 0 0.486275 0 0 0 0 0.427451 0 0 0 0 0.956863 0 0 0 0.04 0"/>
<feBlend mode="normal" in2="BackgroundImageFix" result="effect1_dropShadow_7993_1234"/>
<feBlend mode="normal" in="SourceGraphic" in2="effect1_dropShadow_7993_1234" result="shape"/>
</filter>
<filter id="filter2_d_7993_1234" x="88" y="30" width="352" height="241" filterUnits="userSpaceOnUse" color-interpolation-filters="sRGB">
<feFlood flood-opacity="0" result="BackgroundImageFix"/>
<feColorMatrix in="SourceAlpha" type="matrix" values="0 0 0 0 0 0 0 0 0 0 0 0 0 0 0 0 0 0 127 0" result="hardAlpha"/>
<feOffset/>
<feGaussianBlur stdDeviation="10"/>
<feComposite in2="hardAlpha" operator="out"/>
<feColorMatrix type="matrix" values="0 0 0 0 0 0 0 0 0 0 0 0 0 0 0 0 0 0 0.05 0"/>
<feBlend mode="normal" in2="BackgroundImageFix" result="effect1_dropShadow_7993_1234"/>
<feBlend mode="normal" in="SourceGraphic" in2="effect1_dropShadow_7993_1234" result="shape"/>
</filter>
<filter id="filter3_d_7993_1234" x="5" y="79" width="342" height="231" filterUnits="userSpaceOnUse" color-interpolation-filters="sRGB">
<feFlood flood-opacity="0" result="BackgroundImageFix"/>
<feColorMatrix in="SourceAlpha" type="matrix" values="0 0 0 0 0 0 0 0 0 0 0 0 0 0 0 0 0 0 127 0" result="hardAlpha"/>
<feOffset/>
<feGaussianBlur stdDeviation="7.5"/>
<feComposite in2="hardAlpha" operator="out"/>
<feColorMatrix type="matrix" values="0 0 0 0 0.486275 0 0 0 0 0.427451 0 0 0 0 0.956863 0 0 0 0.04 0"/>
<feBlend mode="normal" in2="BackgroundImageFix" result="effect1_dropShadow_7993_1234"/>
<feBlend mode="normal" in="SourceGraphic" in2="effect1_dropShadow_7993_1234" result="shape"/>
</filter>
<filter id="filter4_d_7993_1234" x="0" y="74" width="352" height="241" filterUnits="userSpaceOnUse" color-interpolation-filters="sRGB">
<feFlood flood-opacity="0" result="BackgroundImageFix"/>
<feColorMatrix in="SourceAlpha" type="matrix" values="0 0 0 0 0 0 0 0 0 0 0 0 0 0 0 0 0 0 127 0" result="hardAlpha"/>
<feOffset/>
<feGaussianBlur stdDeviation="10"/>
<feComposite in2="hardAlpha" operator="out"/>
<feColorMatrix type="matrix" values="0 0 0 0 0 0 0 0 0 0 0 0 0 0 0 0 0 0 0.05 0"/>
<feBlend mode="normal" in2="BackgroundImageFix" result="effect1_dropShadow_7993_1234"/>
<feBlend mode="normal" in="SourceGraphic" in2="effect1_dropShadow_7993_1234" result="shape"/>
</filter>
<filter id="filter5_d_7993_1234" x="157" y="122" width="342" height="231" filterUnits="userSpaceOnUse" color-interpolation-filters="sRGB">
<feFlood flood-opacity="0" result="BackgroundImageFix"/>
<feColorMatrix in="SourceAlpha" type="matrix" values="0 0 0 0 0 0 0 0 0 0 0 0 0 0 0 0 0 0 127 0" result="hardAlpha"/>
<feOffset/>
<feGaussianBlur stdDeviation="7.5"/>
<feComposite in2="hardAlpha" operator="out"/>
<feColorMatrix type="matrix" values="0 0 0 0 0.486275 0 0 0 0 0.427451 0 0 0 0 0.956863 0 0 0 0.04 0"/>
<feBlend mode="normal" in2="BackgroundImageFix" result="effect1_dropShadow_7993_1234"/>
<feBlend mode="normal" in="SourceGraphic" in2="effect1_dropShadow_7993_1234" result="shape"/>
</filter>
<filter id="filter6_d_7993_1234" x="152" y="117" width="352" height="241" filterUnits="userSpaceOnUse" color-interpolation-filters="sRGB">
<feFlood flood-opacity="0" result="BackgroundImageFix"/>
<feColorMatrix in="SourceAlpha" type="matrix" values="0 0 0 0 0 0 0 0 0 0 0 0 0 0 0 0 0 0 127 0" result="hardAlpha"/>
<feOffset/>
<feGaussianBlur stdDeviation="10"/>
<feComposite in2="hardAlpha" operator="out"/>
<feColorMatrix type="matrix" values="0 0 0 0 0 0 0 0 0 0 0 0 0 0 0 0 0 0 0.05 0"/>
<feBlend mode="normal" in2="BackgroundImageFix" result="effect1_dropShadow_7993_1234"/>
<feBlend mode="normal" in="SourceGraphic" in2="effect1_dropShadow_7993_1234" result="shape"/>
</filter>
<linearGradient id="paint0_linear_7993_1234" x1="440.652" y1="67.2349" x2="121.776" y2="104.14" gradientUnits="userSpaceOnUse">
<stop stop-color="#CEC8FF"/>
<stop offset="1" stop-color="#A094FF"/>
</linearGradient>
<linearGradient id="paint1_linear_7993_1234" x1="440.652" y1="67.2349" x2="121.776" y2="104.14" gradientUnits="userSpaceOnUse">
<stop stop-color="#CEC8FF"/>
<stop offset="1" stop-color="#A094FF"/>
</linearGradient>
<linearGradient id="paint2_linear_7993_1234" x1="440.652" y1="67.2349" x2="121.776" y2="104.14" gradientUnits="userSpaceOnUse">
<stop stop-color="#CEC8FF"/>
<stop offset="1" stop-color="#A094FF"/>
</linearGradient>
<linearGradient id="paint3_linear_7993_1234" x1="440.652" y1="67.2349" x2="121.776" y2="104.14" gradientUnits="userSpaceOnUse">
<stop stop-color="#CEC8FF"/>
<stop offset="1" stop-color="#A094FF"/>
</linearGradient>
<linearGradient id="paint4_linear_7993_1234" x1="352.652" y1="111.235" x2="33.776" y2="148.14" gradientUnits="userSpaceOnUse">
<stop stop-color="#CEC8FF"/>
<stop offset="1" stop-color="#A094FF"/>
</linearGradient>
<linearGradient id="paint5_linear_7993_1234" x1="352.652" y1="111.235" x2="33.776" y2="148.14" gradientUnits="userSpaceOnUse">
<stop stop-color="#CEC8FF"/>
<stop offset="1" stop-color="#A094FF"/>
</linearGradient>
<linearGradient id="paint6_linear_7993_1234" x1="352.652" y1="111.235" x2="33.776" y2="148.14" gradientUnits="userSpaceOnUse">
<stop stop-color="#CEC8FF"/>
<stop offset="1" stop-color="#A094FF"/>
</linearGradient>
<linearGradient id="paint7_linear_7993_1234" x1="352.652" y1="111.235" x2="33.776" y2="148.14" gradientUnits="userSpaceOnUse">
<stop stop-color="#CEC8FF"/>
<stop offset="1" stop-color="#A094FF"/>
</linearGradient>
<linearGradient id="paint8_linear_7993_1234" x1="504.652" y1="154.235" x2="185.776" y2="191.14" gradientUnits="userSpaceOnUse">
<stop stop-color="#CEC8FF"/>
<stop offset="1" stop-color="#A094FF"/>
</linearGradient>
<linearGradient id="paint9_linear_7993_1234" x1="504.652" y1="154.235" x2="185.776" y2="191.14" gradientUnits="userSpaceOnUse">
<stop stop-color="#CEC8FF"/>
<stop offset="1" stop-color="#A094FF"/>
</linearGradient>
<linearGradient id="paint10_linear_7993_1234" x1="504.652" y1="154.235" x2="185.776" y2="191.14" gradientUnits="userSpaceOnUse">
<stop stop-color="#CEC8FF"/>
<stop offset="1" stop-color="#A094FF"/>
</linearGradient>
<linearGradient id="paint11_linear_7993_1234" x1="504.652" y1="154.235" x2="185.776" y2="191.14" gradientUnits="userSpaceOnUse">
<stop stop-color="#CEC8FF"/>
<stop offset="1" stop-color="#A094FF"/>
</linearGradient>
</defs>
</svg>
