<svg width="441" height="403" viewBox="0 0 441 403" fill="none" xmlns="http://www.w3.org/2000/svg">
<g clip-path="url(#clip0_5507_4052)">
<g opacity="0.4" filter="url(#filter0_f_5507_4052)">
<ellipse cx="221.5" cy="203" rx="156.5" ry="136" fill="#6D5DF3"/>
</g>
<g filter="url(#filter1_d_5507_4052)">
<rect x="29" y="37" width="360.727" height="99.438" rx="16.34" fill="white"/>
<rect x="29.8907" y="37.8907" width="358.946" height="97.6565" rx="15.4493" stroke="#6D5DF3" stroke-opacity="0.07" stroke-width="1.78149"/>
</g>
<g opacity="0.8">
<path d="M42.3611 58.5364C42.3611 55.5847 44.7539 53.1919 47.7056 53.1919H65.0907C77.6267 53.1919 87.7891 63.3543 87.7891 75.8903C87.7891 88.4263 77.6189 98.5887 65.0829 98.5887C52.5383 98.5887 42.3611 88.4193 42.3611 75.8747V58.5364Z" fill="url(#paint0_linear_5507_4052)"/>
<path d="M98.4785 58.8651C98.4785 56.7151 100.221 54.9722 102.371 54.9722H320.835C322.985 54.9722 324.728 56.7151 324.728 58.8651V67.9918C324.728 70.1418 322.985 71.8847 320.835 71.8847H102.371C100.221 71.8847 98.4785 70.1418 98.4785 67.9918V58.8651Z" fill="url(#paint1_linear_5507_4052)"/>
<path d="M102.371 79.896C100.221 79.896 98.4785 81.6389 98.4785 83.7889V92.9156C98.4785 95.0656 100.221 96.8085 102.371 96.8085H159.61C161.76 96.8085 163.503 95.0656 163.503 92.9156V83.7889C163.503 81.6389 161.76 79.896 159.61 79.896H102.371Z" fill="url(#paint2_linear_5507_4052)"/>
<path d="M336.307 58.8651C336.307 56.7151 338.05 54.9722 340.2 54.9722H366.263C368.413 54.9722 370.155 56.7151 370.155 58.8651V67.9918C370.155 70.1418 368.413 71.8847 366.263 71.8847H340.2C338.05 71.8847 336.307 70.1418 336.307 67.9918V58.8651Z" fill="url(#paint3_linear_5507_4052)"/>
<path d="M356.794 119.062C370.155 119.062 370.155 119.062 370.155 105.71C370.155 92.3579 370.155 92.3579 356.794 92.3579C343.433 92.3579 343.433 92.3579 343.433 105.71C343.433 119.062 343.433 119.062 356.794 119.062Z" fill="url(#paint4_linear_5507_4052)"/>
</g>
<g filter="url(#filter2_d_5507_4052)">
<rect x="52.2727" y="147.017" width="360.727" height="99.438" rx="16.34" fill="white"/>
<rect x="53.1635" y="147.907" width="358.946" height="97.6565" rx="15.4493" stroke="#6D5DF3" stroke-opacity="0.07" stroke-width="1.78149"/>
</g>
<g opacity="0.4">
<path d="M65.3611 168.536C65.3611 165.585 67.7539 163.192 70.7056 163.192H88.0907C100.627 163.192 110.789 173.354 110.789 185.89C110.789 198.426 100.619 208.589 88.0829 208.589C75.5383 208.589 65.3611 198.419 65.3611 185.875V168.536Z" fill="url(#paint5_linear_5507_4052)"/>
<path d="M121.479 168.865C121.479 166.715 123.221 164.972 125.371 164.972H343.835C345.985 164.972 347.728 166.715 347.728 168.865V177.992C347.728 180.142 345.985 181.885 343.835 181.885H125.371C123.221 181.885 121.479 180.142 121.479 177.992V168.865Z" fill="url(#paint6_linear_5507_4052)"/>
<path d="M125.371 189.896C123.221 189.896 121.479 191.639 121.479 193.789V202.916C121.479 205.066 123.221 206.809 125.371 206.809H182.61C184.76 206.809 186.503 205.066 186.503 202.916V193.789C186.503 191.639 184.76 189.896 182.61 189.896H125.371Z" fill="url(#paint7_linear_5507_4052)"/>
<path d="M359.307 168.865C359.307 166.715 361.05 164.972 363.2 164.972H389.263C391.413 164.972 393.155 166.715 393.155 168.865V177.992C393.155 180.142 391.413 181.885 389.263 181.885H363.2C361.05 181.885 359.307 180.142 359.307 177.992V168.865Z" fill="url(#paint8_linear_5507_4052)"/>
<path d="M379.794 229.062C393.155 229.062 393.155 229.062 393.155 215.71C393.155 202.358 393.155 202.358 379.794 202.358C366.433 202.358 366.433 202.358 366.433 215.71C366.433 229.062 366.433 229.062 379.794 229.062Z" fill="url(#paint9_linear_5507_4052)"/>
</g>
<g filter="url(#filter3_d_5507_4052)">
<rect x="29" y="257.033" width="360.727" height="99.438" rx="16.34" fill="white"/>
<rect x="29.8907" y="257.924" width="358.946" height="97.6565" rx="15.4493" stroke="#6D5DF3" stroke-opacity="0.07" stroke-width="1.78149"/>
<g opacity="0.2">
<path d="M42.3611 278.536C42.3611 275.585 44.7539 273.192 47.7056 273.192H65.0907C77.6267 273.192 87.7891 283.354 87.7891 295.89C87.7891 308.426 77.6189 318.589 65.0829 318.589C52.5383 318.589 42.3611 308.419 42.3611 295.875V278.536Z" fill="url(#paint10_linear_5507_4052)"/>
<path d="M98.4785 278.865C98.4785 276.715 100.221 274.972 102.371 274.972H320.835C322.985 274.972 324.728 276.715 324.728 278.865V287.992C324.728 290.142 322.985 291.885 320.835 291.885H102.371C100.221 291.885 98.4785 290.142 98.4785 287.992V278.865Z" fill="url(#paint11_linear_5507_4052)"/>
<path d="M102.371 299.896C100.221 299.896 98.4785 301.639 98.4785 303.789V312.916C98.4785 315.066 100.221 316.809 102.371 316.809H159.61C161.76 316.809 163.503 315.066 163.503 312.916V303.789C163.503 301.639 161.76 299.896 159.61 299.896H102.371Z" fill="url(#paint12_linear_5507_4052)"/>
<path d="M336.307 278.865C336.307 276.715 338.05 274.972 340.2 274.972H366.263C368.413 274.972 370.155 276.715 370.155 278.865V287.992C370.155 290.142 368.413 291.885 366.263 291.885H340.2C338.05 291.885 336.307 290.142 336.307 287.992V278.865Z" fill="url(#paint13_linear_5507_4052)"/>
<path d="M356.794 339.062C370.155 339.062 370.155 339.062 370.155 325.71C370 312.358 370 312.358 356.794 312.358C343.433 312.358 343.498 312.358 343.433 325.71C343.368 339.062 343.433 339.062 356.794 339.062Z" fill="url(#paint14_linear_5507_4052)"/>
</g>
</g>
<path opacity="0.67" d="M339.062 45.3144L341.659 21.0781L345.771 21.5188L343.175 45.755L339.062 45.3144ZM330.078 34.1746L330.519 30.0617L354.755 32.6586L354.314 36.7714L330.078 34.1746Z" fill="#6D5DF3"/>
<path opacity="0.67" d="M26.3668 360.396L28.3436 336.101L32.4663 336.437L30.4895 360.732L26.3668 360.396ZM17.1015 349.489L17.4369 345.367L41.7316 347.344L41.3962 351.466L17.1015 349.489Z" fill="#6D5DF3"/>
<path opacity="0.67" d="M396.747 262.111L390.815 238.469L394.827 237.462L400.759 261.105L396.747 262.111ZM384.469 254.759L383.462 250.747L407.105 244.815L408.111 248.827L384.469 254.759Z" fill="#6D5DF3"/>
</g>
<defs>
<filter id="filter0_f_5507_4052" x="-8.34" y="-6.34" width="459.68" height="418.68" filterUnits="userSpaceOnUse" color-interpolation-filters="sRGB">
<feFlood flood-opacity="0" result="BackgroundImageFix"/>
<feBlend mode="normal" in="SourceGraphic" in2="BackgroundImageFix" result="shape"/>
<feGaussianBlur stdDeviation="36.67" result="effect1_foregroundBlur_5507_4052"/>
</filter>
<filter id="filter1_d_5507_4052" x="9" y="17" width="400.727" height="139.438" filterUnits="userSpaceOnUse" color-interpolation-filters="sRGB">
<feFlood flood-opacity="0" result="BackgroundImageFix"/>
<feColorMatrix in="SourceAlpha" type="matrix" values="0 0 0 0 0 0 0 0 0 0 0 0 0 0 0 0 0 0 127 0" result="hardAlpha"/>
<feOffset/>
<feGaussianBlur stdDeviation="10"/>
<feComposite in2="hardAlpha" operator="out"/>
<feColorMatrix type="matrix" values="0 0 0 0 0 0 0 0 0 0 0 0 0 0 0 0 0 0 0.05 0"/>
<feBlend mode="normal" in2="BackgroundImageFix" result="effect1_dropShadow_5507_4052"/>
<feBlend mode="normal" in="SourceGraphic" in2="effect1_dropShadow_5507_4052" result="shape"/>
</filter>
<filter id="filter2_d_5507_4052" x="32.2727" y="127.017" width="400.727" height="139.438" filterUnits="userSpaceOnUse" color-interpolation-filters="sRGB">
<feFlood flood-opacity="0" result="BackgroundImageFix"/>
<feColorMatrix in="SourceAlpha" type="matrix" values="0 0 0 0 0 0 0 0 0 0 0 0 0 0 0 0 0 0 127 0" result="hardAlpha"/>
<feOffset/>
<feGaussianBlur stdDeviation="10"/>
<feComposite in2="hardAlpha" operator="out"/>
<feColorMatrix type="matrix" values="0 0 0 0 0 0 0 0 0 0 0 0 0 0 0 0 0 0 0.05 0"/>
<feBlend mode="normal" in2="BackgroundImageFix" result="effect1_dropShadow_5507_4052"/>
<feBlend mode="normal" in="SourceGraphic" in2="effect1_dropShadow_5507_4052" result="shape"/>
</filter>
<filter id="filter3_d_5507_4052" x="9" y="237.033" width="400.727" height="139.438" filterUnits="userSpaceOnUse" color-interpolation-filters="sRGB">
<feFlood flood-opacity="0" result="BackgroundImageFix"/>
<feColorMatrix in="SourceAlpha" type="matrix" values="0 0 0 0 0 0 0 0 0 0 0 0 0 0 0 0 0 0 127 0" result="hardAlpha"/>
<feOffset/>
<feGaussianBlur stdDeviation="10"/>
<feComposite in2="hardAlpha" operator="out"/>
<feColorMatrix type="matrix" values="0 0 0 0 0 0 0 0 0 0 0 0 0 0 0 0 0 0 0.05 0"/>
<feBlend mode="normal" in2="BackgroundImageFix" result="effect1_dropShadow_5507_4052"/>
<feBlend mode="normal" in="SourceGraphic" in2="effect1_dropShadow_5507_4052" result="shape"/>
</filter>
<linearGradient id="paint0_linear_5507_4052" x1="358" y1="74.5" x2="40" y2="80" gradientUnits="userSpaceOnUse">
<stop stop-color="#CEC8FF"/>
<stop offset="1" stop-color="#A094FF"/>
</linearGradient>
<linearGradient id="paint1_linear_5507_4052" x1="358" y1="74.5" x2="40" y2="80" gradientUnits="userSpaceOnUse">
<stop stop-color="#CEC8FF"/>
<stop offset="1" stop-color="#A094FF"/>
</linearGradient>
<linearGradient id="paint2_linear_5507_4052" x1="358" y1="74.5" x2="40" y2="80" gradientUnits="userSpaceOnUse">
<stop stop-color="#CEC8FF"/>
<stop offset="1" stop-color="#A094FF"/>
</linearGradient>
<linearGradient id="paint3_linear_5507_4052" x1="358" y1="74.5" x2="40" y2="80" gradientUnits="userSpaceOnUse">
<stop stop-color="#CEC8FF"/>
<stop offset="1" stop-color="#A094FF"/>
</linearGradient>
<linearGradient id="paint4_linear_5507_4052" x1="358" y1="74.5" x2="40" y2="80" gradientUnits="userSpaceOnUse">
<stop stop-color="#CEC8FF"/>
<stop offset="1" stop-color="#A094FF"/>
</linearGradient>
<linearGradient id="paint5_linear_5507_4052" x1="381" y1="184.5" x2="63" y2="190" gradientUnits="userSpaceOnUse">
<stop stop-color="#CEC8FF"/>
<stop offset="1" stop-color="#A094FF"/>
</linearGradient>
<linearGradient id="paint6_linear_5507_4052" x1="381" y1="184.5" x2="63" y2="190" gradientUnits="userSpaceOnUse">
<stop stop-color="#CEC8FF"/>
<stop offset="1" stop-color="#A094FF"/>
</linearGradient>
<linearGradient id="paint7_linear_5507_4052" x1="381" y1="184.5" x2="63" y2="190" gradientUnits="userSpaceOnUse">
<stop stop-color="#CEC8FF"/>
<stop offset="1" stop-color="#A094FF"/>
</linearGradient>
<linearGradient id="paint8_linear_5507_4052" x1="381" y1="184.5" x2="63" y2="190" gradientUnits="userSpaceOnUse">
<stop stop-color="#CEC8FF"/>
<stop offset="1" stop-color="#A094FF"/>
</linearGradient>
<linearGradient id="paint9_linear_5507_4052" x1="381" y1="184.5" x2="63" y2="190" gradientUnits="userSpaceOnUse">
<stop stop-color="#CEC8FF"/>
<stop offset="1" stop-color="#A094FF"/>
</linearGradient>
<linearGradient id="paint10_linear_5507_4052" x1="358" y1="294.5" x2="40" y2="300" gradientUnits="userSpaceOnUse">
<stop stop-color="#CEC8FF"/>
<stop offset="1" stop-color="#A094FF"/>
</linearGradient>
<linearGradient id="paint11_linear_5507_4052" x1="358" y1="294.5" x2="40" y2="300" gradientUnits="userSpaceOnUse">
<stop stop-color="#CEC8FF"/>
<stop offset="1" stop-color="#A094FF"/>
</linearGradient>
<linearGradient id="paint12_linear_5507_4052" x1="358" y1="294.5" x2="40" y2="300" gradientUnits="userSpaceOnUse">
<stop stop-color="#CEC8FF"/>
<stop offset="1" stop-color="#A094FF"/>
</linearGradient>
<linearGradient id="paint13_linear_5507_4052" x1="358" y1="294.5" x2="40" y2="300" gradientUnits="userSpaceOnUse">
<stop stop-color="#CEC8FF"/>
<stop offset="1" stop-color="#A094FF"/>
</linearGradient>
<linearGradient id="paint14_linear_5507_4052" x1="358" y1="294.5" x2="40" y2="300" gradientUnits="userSpaceOnUse">
<stop stop-color="#CEC8FF"/>
<stop offset="1" stop-color="#A094FF"/>
</linearGradient>
<clipPath id="clip0_5507_4052">
<rect width="441" height="403" fill="white"/>
</clipPath>
</defs>
</svg>
