<svg width="30" height="30" viewBox="0 0 30 30" fill="none" xmlns="http://www.w3.org/2000/svg">
<g id="note">
<path id="Vector" d="M28 20.3454V4.78571C28 3.24719 26.7528 2 25.2143 2H4.78571C3.24719 2 2 3.24719 2 4.78571V25.2136C2 26.7521 3.24719 27.9993 4.78571 27.9993H20.3461C21.085 27.9993 21.7935 27.7058 22.3159 27.1834L27.1841 22.3152C27.7065 21.7928 28 21.0843 28 20.3454ZM20.5714 24.9883V20.5707H24.989L20.5714 24.9883ZM25.2143 4.78571V17.785H19.1786C18.4093 17.785 17.7857 18.4086 17.7857 19.1779V25.2136H4.78571V4.78571H25.2143Z" fill="#002157"/>
</g>
</svg>
