<?xml version="1.0" encoding="utf-8"?>
<!-- Generator: Adobe Illustrator 25.3.1, SVG Export Plug-In . SVG Version: 6.00 Build 0)  -->
<svg version="1.1" xmlns="http://www.w3.org/2000/svg" xmlns:xlink="http://www.w3.org/1999/xlink" x="0px" y="0px"
	 viewBox="0 0 500 368.4" style="enable-background:new 0 0 500 368.4;" xml:space="preserve">
<style type="text/css">
	.st0{opacity:0.25;fill:#FFFFFF;}
	.st1{fill:url(#SVGID_1_);}
	.st2{fill:#E5D7FF;}
	.st3{opacity:0.75;fill:#E5D7FF;}
	.st4{fill:url(#SVGID_2_);}
	.st5{fill:#3C52C4;}
	.st6{fill:url(#SVGID_3_);}
	.st7{fill:url(#SVGID_4_);}
	.st8{fill:url(#SVGID_5_);}
	.st9{fill:url(#SVGID_6_);}
	.st10{fill:url(#SVGID_7_);}
	.st11{fill:url(#SVGID_8_);}
	.st12{fill:url(#SVGID_9_);}
	.st13{fill:url(#SVGID_10_);}
	.st14{fill:url(#SVGID_11_);}
	.st15{fill:url(#SVGID_12_);}
	.st16{fill:url(#SVGID_13_);}
	.st17{fill:url(#SVGID_14_);}
	.st18{fill:url(#SVGID_15_);}
	.st19{fill:url(#SVGID_16_);}
	.st20{fill:url(#SVGID_17_);}
	.st21{fill:#1824B2;}
	.st22{fill:url(#SVGID_18_);}
	.st23{fill:url(#SVGID_19_);}
	.st24{fill:url(#SVGID_20_);}
	.st25{fill:url(#SVGID_21_);}
	.st26{fill:url(#SVGID_22_);}
	.st27{fill:url(#SVGID_23_);}
	.st28{fill:url(#SVGID_24_);}
	.st29{fill:url(#SVGID_25_);}
	.st30{fill:url(#SVGID_26_);}
	.st31{fill:url(#SVGID_27_);}
	.st32{fill:url(#SVGID_28_);}
	.st33{fill:url(#SVGID_29_);}
	.st34{fill:url(#SVGID_30_);}
	.st35{fill:url(#SVGID_31_);}
	.st36{fill:url(#SVGID_32_);}
	.st37{fill:url(#SVGID_33_);}
	.st38{fill:url(#SVGID_34_);}
	.st39{fill:url(#SVGID_35_);}
	.st40{fill:url(#SVGID_36_);}
	.st41{fill:url(#SVGID_37_);}
	.st42{fill:url(#SVGID_38_);}
	.st43{fill:url(#SVGID_39_);}
	.st44{fill:url(#SVGID_40_);}
	.st45{fill:url(#SVGID_41_);}
	.st46{fill:url(#SVGID_42_);}
	.st47{fill:url(#SVGID_43_);}
	.st48{fill:url(#SVGID_44_);}
	.st49{fill:url(#SVGID_45_);}
	.st50{fill:url(#SVGID_46_);}
	.st51{fill:url(#SVGID_47_);}
	.st52{fill:url(#SVGID_48_);}
	.st53{fill:url(#SVGID_49_);}
	.st54{fill:url(#SVGID_50_);}
	.st55{fill:url(#SVGID_51_);}
	.st56{fill:url(#SVGID_52_);}
	.st57{fill:url(#SVGID_53_);}
	.st58{fill:url(#SVGID_54_);}
	.st59{fill:url(#SVGID_55_);}
	.st60{fill:#DAC1FF;}
	.st61{fill:#1625C1;}
	.st62{fill:#F1C149;}
	.st63{fill:url(#SVGID_56_);}
	.st64{fill:#DFC9FF;}
	.st65{fill:none;stroke:#1625C1;stroke-width:2.6419;stroke-linecap:round;stroke-miterlimit:10;}
	.st66{fill:#FFFFFF;}
	.st67{fill:#0500A1;}
	.st68{fill:none;stroke:#F1C149;stroke-width:0.7737;stroke-miterlimit:10;}
	.st69{fill:#E3CEFF;}
	.st70{fill:#CDBCFF;}
	.st71{fill:#FFFDFF;}
	.st72{fill:#241F68;}
	.st73{fill:url(#SVGID_57_);}
	.st74{fill:url(#SVGID_58_);}
	.st75{fill:url(#SVGID_59_);}
	.st76{fill:url(#SVGID_60_);}
	.st77{fill:#684EEB;}
	.st78{fill:url(#SVGID_61_);}
	.st79{fill:#4A4573;}
	.st80{fill:url(#SVGID_62_);}
	.st81{fill:#2718C0;}
	.st82{fill:url(#SVGID_63_);}
	.st83{fill:url(#SVGID_64_);}
	.st84{fill:url(#SVGID_65_);}
	.st85{fill:url(#SVGID_66_);}
	.st86{fill:url(#SVGID_67_);}
	.st87{fill:#E1DDFF;}
	.st88{fill:none;stroke:#9E2EF7;stroke-width:0.3774;stroke-miterlimit:10;}
	.st89{fill:#D7C7FF;}
	.st90{fill:url(#SVGID_68_);}
	.st91{fill:url(#SVGID_69_);}
	.st92{fill:url(#SVGID_70_);}
	.st93{fill:url(#SVGID_71_);}
	.st94{fill:url(#SVGID_72_);}
	.st95{fill:#7358F5;}
	.st96{fill:url(#SVGID_73_);}
	.st97{fill:#1D3958;}
	.st98{fill:#1E12B8;}
	.st99{fill:url(#SVGID_74_);}
	.st100{fill:url(#SVGID_75_);}
	.st101{fill:url(#SVGID_76_);}
	.st102{fill:url(#SVGID_77_);}
	.st103{fill:url(#SVGID_78_);}
	.st104{fill:url(#SVGID_79_);}
	.st105{fill:url(#SVGID_80_);}
	.st106{fill:url(#SVGID_81_);}
	.st107{fill:url(#SVGID_82_);}
	.st108{fill:#3C47D5;}
	.st109{fill:none;stroke:#8566FF;stroke-width:0.3774;stroke-miterlimit:10;}
	.st110{fill:#8566FF;}
	.st111{fill:url(#SVGID_83_);}
	.st112{fill:url(#SVGID_84_);}
	.st113{fill:url(#SVGID_85_);}
	.st114{fill:url(#SVGID_86_);}
	.st115{fill:url(#SVGID_87_);}
	.st116{fill:url(#SVGID_88_);}
	.st117{fill:url(#SVGID_89_);}
	.st118{fill:url(#SVGID_90_);}
	.st119{fill:url(#SVGID_91_);}
	.st120{fill:url(#SVGID_92_);}
	.st121{fill:url(#SVGID_93_);}
	.st122{fill:url(#SVGID_94_);}
	.st123{fill:none;stroke:#D5BF86;stroke-width:0.5661;stroke-linecap:round;stroke-miterlimit:10;}
	.st124{fill:url(#SVGID_95_);}
	.st125{fill:url(#SVGID_96_);}
	.st126{fill:url(#SVGID_97_);}
	.st127{fill:url(#SVGID_98_);}
	.st128{fill:url(#SVGID_99_);}
	.st129{fill:url(#SVGID_100_);}
	.st130{fill:url(#SVGID_101_);}
	.st131{fill:url(#SVGID_102_);}
</style>
<g id="BACKGROUND">
	<rect y="-60.5" class="st0" width="500" height="500"/>
</g>
<g id="OBJECTS">
	<g>
		<linearGradient id="SVGID_1_" gradientUnits="userSpaceOnUse" x1="94.5105" y1="28.161" x2="94.5333" y2="28.4301">
			<stop  offset="0" style="stop-color:#7659F7"/>
			<stop  offset="0.3371" style="stop-color:#8263FF"/>
			<stop  offset="0.9177" style="stop-color:#9088FF"/>
			<stop  offset="1" style="stop-color:#928EFF"/>
		</linearGradient>
		<path class="st1" d="M95.4,28.3C95.4,28.3,95.4,28.3,95.4,28.3c-0.6,0-1.2,0-1.7,0C94.1,28.2,94.6,28.3,95.4,28.3z"/>
		<path class="st2" d="M218,239.5c0,0-37.7,1.1-40,4.7c-2.3,3.6,22.3,4,24.3,11.5c2.1,7.5,7.7,12.5,51.3,12.3
			c43.6-0.2,40.2-3.6,32.6-11.5c-7.5-7.9,4.9-7.5,1.5-12.6C284.4,238.8,233.5,238.8,218,239.5z"/>
		<path class="st2" d="M345.2,289.5c-4.9,2.5-7.5,6.2,0.6,7c8.1,0.8,18.7,10.9,38.9,7.4c20.2-3.6,5.6-17.6-24.4-19.3L345.2,289.5z"
			/>
		<path class="st2" d="M229.9,344.3c0,0-12.6,2.8-11.9,8.5c0.8,5.7,20.8,1.5,25.9,6.4c5.1,4.9,34.9,4.2,30.8-4.9
			C270.4,345.2,251.2,342.2,229.9,344.3z"/>
		<path class="st3" d="M163,306.3c4.3,1,7.1,5.3,5.9,9.6c-0.8,3.2-3.1,6.3-8.5,7.5c-12.3,2.6-17.9,19.2-42.8,12.6
			c-24.9-6.6,10.8-28.5,10.8-28.5S135.2,300.1,163,306.3z"/>
		<path class="st3" d="M249.1,12.9c-19.2-11.3-39.8,3.2-50.6,25.5c-10.8,22.3-15.1,41.4-58.8,32.9c-43.7-8.5-62.9,14.5-60.3,52.1
			c2.6,37.7,47.9,116.7,168,110.9c120-5.8,156.1-82.7,150.8-117.8c-5.3-35.1-71.5-26.4-97.6-55.5S262.9,21,249.1,12.9z"/>
		<linearGradient id="SVGID_2_" gradientUnits="userSpaceOnUse" x1="390.3665" y1="197.6035" x2="425.4649" y2="211.473">
			<stop  offset="0" style="stop-color:#6F52EB"/>
			<stop  offset="1" style="stop-color:#8372FF"/>
		</linearGradient>
		<path class="st4" d="M391.6,184.6c0,0,17.4,4.2,23.6,22.1c0,0-15.7,5.5-30.8,2.1C369.3,205.4,391.6,184.6,391.6,184.6z"/>
		<path class="st5" d="M383.1,195.4c0,0,13.4,1.9,22.3,6.8c0,0-11.5-3.8-25.7-4.9L383.1,195.4z"/>
		<g>
			<linearGradient id="SVGID_3_" gradientUnits="userSpaceOnUse" x1="371.0742" y1="192.3817" x2="400.6953" y2="174.4028">
				<stop  offset="0" style="stop-color:#6752EB"/>
				<stop  offset="1" style="stop-color:#8372FF"/>
			</linearGradient>
			<path class="st6" d="M367.9,199.8c0,0,22.5,1.9,30-11.9s5.9-20.6,5.9-20.6s-30.9-0.6-41.5,22.3L367.9,199.8z"/>
			<path class="st5" d="M369.1,196.6c0,0,14.3-17.6,32-25.5c0,0-20.4,6.4-33.2,24.2L369.1,196.6z"/>
			<linearGradient id="SVGID_4_" gradientUnits="userSpaceOnUse" x1="400.7163" y1="201.1028" x2="385.1721" y2="182.7799">
				<stop  offset="0" style="stop-color:#AF8AFF"/>
				<stop  offset="1" style="stop-color:#AF8AFF;stop-opacity:0"/>
			</linearGradient>
			<path class="st7" d="M367.9,199.8c0,0,22.5,1.9,30-11.9s5.9-20.6,5.9-20.6s-30.9-0.6-41.5,22.3L367.9,199.8z"/>
		</g>
		<g>
			<linearGradient id="SVGID_5_" gradientUnits="userSpaceOnUse" x1="357.1884" y1="202.9423" x2="397.0988" y2="216.5288">
				<stop  offset="0" style="stop-color:#7054F4"/>
				<stop  offset="1" style="stop-color:#8372FF"/>
			</linearGradient>
			<path class="st8" d="M369.9,189.7c24,6.6,24.6,29.3,29.9,41.2c0,0-25.5,4.3-37.6-19.8C358.5,201.5,354.9,190.6,369.9,189.7z"/>
			<path class="st5" d="M368.3,198.7c0,0,15.1,9.6,21.1,24c0,0-13.6-19.2-23.6-21.9L368.3,198.7z"/>
			<linearGradient id="SVGID_6_" gradientUnits="userSpaceOnUse" x1="379.1548" y1="234.8815" x2="379.3435" y2="218.0862">
				<stop  offset="0" style="stop-color:#AF8AFF"/>
				<stop  offset="1" style="stop-color:#AF8AFF;stop-opacity:0"/>
			</linearGradient>
			<path class="st9" d="M369.9,189.7c24,6.6,24.6,29.3,29.9,41.2c0,0-25.5,4.3-37.6-19.8C358.5,201.5,354.9,190.6,369.9,189.7z"/>
		</g>
		<g>
			<linearGradient id="SVGID_7_" gradientUnits="userSpaceOnUse" x1="362.5154" y1="171.1608" x2="391.8871" y2="150.6006">
				<stop  offset="0" style="stop-color:#7054F4"/>
				<stop  offset="1" style="stop-color:#8372FF"/>
			</linearGradient>
			<path class="st10" d="M360.1,158.9c0,0,10.2-14.1,39.6-11.7c0,0-5.1,1.5-9.5,12.6c-4.4,11.1-13.9,21.4-30.7,17.4L360.1,158.9z"/>
			<path class="st5" d="M363,170.3c0,0,14-13.5,27.8-18.8c0,0-12.2,2.7-29.4,17.8L363,170.3z"/>
			<linearGradient id="SVGID_8_" gradientUnits="userSpaceOnUse" x1="389.3904" y1="174.5556" x2="379.2" y2="161.7232">
				<stop  offset="0" style="stop-color:#AF8AFF"/>
				<stop  offset="1" style="stop-color:#AF8AFF;stop-opacity:0"/>
			</linearGradient>
			<path class="st11" d="M360.1,158.9c0,0,10.2-14.1,39.6-11.7c0,0-5.1,1.5-9.5,12.6c-4.4,11.1-13.9,21.4-30.7,17.4L360.1,158.9z"/>
		</g>
		<g>
			
				<linearGradient id="SVGID_9_" gradientUnits="userSpaceOnUse" x1="357.4848" y1="6.8576" x2="373.2865" y2="6.8576" gradientTransform="matrix(0.9754 -0.2204 0.2204 0.9754 38.1553 136.2384)">
				<stop  offset="0" style="stop-color:#7054F4"/>
				<stop  offset="1" style="stop-color:#8372FF"/>
			</linearGradient>
			<path class="st12" d="M390.1,71.8c0,0,4-10.1,12-18.8C402,53,397.7,65.5,390.1,71.8z"/>
			
				<linearGradient id="SVGID_10_" gradientUnits="userSpaceOnUse" x1="351.4215" y1="6.6714" x2="359.3643" y2="6.6714" gradientTransform="matrix(0.9754 -0.2204 0.2204 0.9754 38.1553 136.2384)">
				<stop  offset="0" style="stop-color:#7054F4"/>
				<stop  offset="1" style="stop-color:#8372FF"/>
			</linearGradient>
			<path class="st13" d="M385.1,77.2c0,0,3.4-12.8,2.4-25.5C387.5,51.7,383.3,65.5,385.1,77.2z"/>
			
				<linearGradient id="SVGID_11_" gradientUnits="userSpaceOnUse" x1="352.0966" y1="18.5207" x2="377.3019" y2="18.5207" gradientTransform="matrix(0.9754 -0.2204 0.2204 0.9754 38.1553 136.2384)">
				<stop  offset="0" style="stop-color:#7054F4"/>
				<stop  offset="1" style="stop-color:#8372FF"/>
			</linearGradient>
			<path class="st14" d="M410.1,70.5c0,0-11.7,5.8-24.2,7.2C385.9,77.7,398.5,70.9,410.1,70.5z"/>
			
				<linearGradient id="SVGID_12_" gradientUnits="userSpaceOnUse" x1="344.2977" y1="25.9536" x2="370.6064" y2="25.9536" gradientTransform="matrix(0.9754 -0.2204 0.2204 0.9754 38.1553 136.2384)">
				<stop  offset="0" style="stop-color:#7054F4"/>
				<stop  offset="1" style="stop-color:#8372FF"/>
			</linearGradient>
			<path class="st15" d="M405.4,79.8c0,0-12.5,5.6-25.6,6.3C379.8,86.1,393.2,79.4,405.4,79.8z"/>
			
				<linearGradient id="SVGID_13_" gradientUnits="userSpaceOnUse" x1="334.6926" y1="33.4812" x2="361.6449" y2="33.4812" gradientTransform="matrix(0.9754 -0.2204 0.2204 0.9754 38.1553 136.2384)">
				<stop  offset="0" style="stop-color:#7054F4"/>
				<stop  offset="1" style="stop-color:#8372FF"/>
			</linearGradient>
			<path class="st16" d="M398.2,89c0,0-12.8,6-26.1,6.6C372.1,95.7,385.8,88.6,398.2,89z"/>
			
				<linearGradient id="SVGID_14_" gradientUnits="userSpaceOnUse" x1="325.7975" y1="41.9888" x2="352.3903" y2="41.9888" gradientTransform="matrix(0.9754 -0.2204 0.2204 0.9754 38.1553 136.2384)">
				<stop  offset="0" style="stop-color:#7054F4"/>
				<stop  offset="1" style="stop-color:#8372FF"/>
			</linearGradient>
			<path class="st17" d="M391.6,101.8c0,0-13.7,3.4-26.9,1.5C364.7,103.2,379.5,98.9,391.6,101.8z"/>
			
				<linearGradient id="SVGID_15_" gradientUnits="userSpaceOnUse" x1="343.1279" y1="12.799" x2="348.87" y2="12.799" gradientTransform="matrix(0.9754 -0.2204 0.2204 0.9754 38.1553 136.2384)">
				<stop  offset="0" style="stop-color:#7054F4"/>
				<stop  offset="1" style="stop-color:#8372FF"/>
			</linearGradient>
			<path class="st18" d="M378.4,85.3c0,0,2.2-13,0.1-25.6C378.5,59.6,375.6,73.8,378.4,85.3z"/>
			
				<linearGradient id="SVGID_16_" gradientUnits="userSpaceOnUse" x1="332.951" y1="18.2787" x2="337.9036" y2="18.2787" gradientTransform="matrix(0.9754 -0.2204 0.2204 0.9754 38.1553 136.2384)">
				<stop  offset="0" style="stop-color:#7054F4"/>
				<stop  offset="1" style="stop-color:#8372FF"/>
			</linearGradient>
			<path class="st19" d="M370.2,93.9c0,0,2-14.3-1.4-27.6C368.7,66.3,365.9,82,370.2,93.9z"/>
			
				<linearGradient id="SVGID_17_" gradientUnits="userSpaceOnUse" x1="323.6646" y1="23.556" x2="327.627" y2="23.556" gradientTransform="matrix(0.9754 -0.2204 0.2204 0.9754 38.1553 136.2384)">
				<stop  offset="0" style="stop-color:#7054F4"/>
				<stop  offset="1" style="stop-color:#8372FF"/>
			</linearGradient>
			<path class="st20" d="M362.6,101.2c0,0,1.3-14.4-2.9-27.5C359.7,73.7,357.7,89.4,362.6,101.2z"/>
			<path class="st21" d="M356.4,107.1c0,0,12.9-7.8,33.3-34.6c0,0-19.7,29.3-32.6,37.4L356.4,107.1z"/>
		</g>
		<g>
			
				<linearGradient id="SVGID_18_" gradientUnits="userSpaceOnUse" x1="303.8935" y1="152.0011" x2="319.6953" y2="152.0011" gradientTransform="matrix(0.9677 0.252 -0.252 0.9677 139.0838 -115.32)">
				<stop  offset="0" style="stop-color:#7054F4"/>
				<stop  offset="1" style="stop-color:#8372FF"/>
			</linearGradient>
			<path class="st22" d="M392.9,115.9c0,0,8.1-7.1,19.2-11.2C412.1,104.8,402.5,113.9,392.9,115.9z"/>
			
				<linearGradient id="SVGID_19_" gradientUnits="userSpaceOnUse" x1="297.8302" y1="151.815" x2="305.7727" y2="151.815" gradientTransform="matrix(0.9677 0.252 -0.252 0.9677 139.0838 -115.32)">
				<stop  offset="0" style="stop-color:#7054F4"/>
				<stop  offset="1" style="stop-color:#8372FF"/>
			</linearGradient>
			<path class="st23" d="M386,118.4c0,0,8.9-9.8,13.8-21.6C399.8,96.9,389.7,107.2,386,118.4z"/>
			
				<linearGradient id="SVGID_20_" gradientUnits="userSpaceOnUse" x1="298.5054" y1="163.6644" x2="323.711" y2="163.6644" gradientTransform="matrix(0.9677 0.252 -0.252 0.9677 139.0838 -115.32)">
				<stop  offset="0" style="stop-color:#7054F4"/>
				<stop  offset="1" style="stop-color:#8372FF"/>
			</linearGradient>
			<path class="st24" d="M411.3,124c0,0-13.1-0.2-24.8-4.7C386.5,119.2,400.7,119,411.3,124z"/>
			
				<linearGradient id="SVGID_21_" gradientUnits="userSpaceOnUse" x1="290.7064" y1="171.0975" x2="317.0155" y2="171.0975" gradientTransform="matrix(0.9677 0.252 -0.252 0.9677 139.0838 -115.32)">
				<stop  offset="0" style="stop-color:#7054F4"/>
				<stop  offset="1" style="stop-color:#8372FF"/>
			</linearGradient>
			<path class="st25" d="M402.8,130.1c0,0-13.7-0.7-25.6-6.2C377.2,123.9,392.2,124.2,402.8,130.1z"/>
			
				<linearGradient id="SVGID_22_" gradientUnits="userSpaceOnUse" x1="281.1013" y1="178.6255" x2="308.054" y2="178.6255" gradientTransform="matrix(0.9677 0.252 -0.252 0.9677 139.0838 -115.32)">
				<stop  offset="0" style="stop-color:#7054F4"/>
				<stop  offset="1" style="stop-color:#8372FF"/>
			</linearGradient>
			<path class="st26" d="M392.2,135c0,0-14.1-0.5-26.3-6.1C366,128.9,381.4,128.9,392.2,135z"/>
			
				<linearGradient id="SVGID_23_" gradientUnits="userSpaceOnUse" x1="272.2061" y1="187.1333" x2="298.7995" y2="187.1333" gradientTransform="matrix(0.9677 0.252 -0.252 0.9677 139.0838 -115.32)">
				<stop  offset="0" style="stop-color:#7054F4"/>
				<stop  offset="1" style="stop-color:#8372FF"/>
			</linearGradient>
			<path class="st27" d="M380.5,143.3c0,0-13.7-3.2-24.6-11.1C355.9,132.2,371.1,135.2,380.5,143.3z"/>
			
				<linearGradient id="SVGID_24_" gradientUnits="userSpaceOnUse" x1="289.5366" y1="157.9429" x2="295.2783" y2="157.9429" gradientTransform="matrix(0.9677 0.252 -0.252 0.9677 139.0838 -115.32)">
				<stop  offset="0" style="stop-color:#7054F4"/>
				<stop  offset="1" style="stop-color:#8372FF"/>
			</linearGradient>
			<path class="st28" d="M376.3,122.6c0,0,8-10.6,11.8-22.7C388.2,99.8,379.1,111.1,376.3,122.6z"/>
			
				<linearGradient id="SVGID_25_" gradientUnits="userSpaceOnUse" x1="279.3596" y1="163.4229" x2="284.3118" y2="163.4229" gradientTransform="matrix(0.9677 0.252 -0.252 0.9677 139.0838 -115.32)">
				<stop  offset="0" style="stop-color:#7054F4"/>
				<stop  offset="1" style="stop-color:#8372FF"/>
			</linearGradient>
			<path class="st29" d="M365,126.5c0,0,8.4-11.8,11.4-25.2C376.4,101.3,366.7,113.9,365,126.5z"/>
			
				<linearGradient id="SVGID_26_" gradientUnits="userSpaceOnUse" x1="270.0731" y1="168.7005" x2="274.0352" y2="168.7005" gradientTransform="matrix(0.9677 0.252 -0.252 0.9677 139.0838 -115.32)">
				<stop  offset="0" style="stop-color:#7054F4"/>
				<stop  offset="1" style="stop-color:#8372FF"/>
			</linearGradient>
			<path class="st30" d="M355,129.4c0,0,7.7-12.2,10.1-25.7C365,103.7,356,116.7,355,129.4z"/>
			<path class="st21" d="M346.7,131.8c0,0,15-1,45.4-15.5c0,0-30.9,17-46.2,18.3L346.7,131.8z"/>
		</g>
		<g>
			<linearGradient id="SVGID_27_" gradientUnits="userSpaceOnUse" x1="364.6363" y1="152.9395" x2="369.1652" y2="120.9545">
				<stop  offset="0" style="stop-color:#7357F5"/>
				<stop  offset="1" style="stop-color:#8372FF"/>
			</linearGradient>
			<path class="st31" d="M356.3,136.9c0,0,3.6-15.7,11.9-25.7c0,0,24.9,31.3-7.5,51.1L356.3,136.9z"/>
			<path class="st5" d="M360.5,152.9c0,0,8.3-11.1,7.7-28.3c0,0-0.9,17-8.7,26.4L360.5,152.9z"/>
			<linearGradient id="SVGID_28_" gradientUnits="userSpaceOnUse" x1="380.0767" y1="147.3265" x2="367.4234" y2="138.7928">
				<stop  offset="0" style="stop-color:#AF8AFF"/>
				<stop  offset="1" style="stop-color:#AF8AFF;stop-opacity:0"/>
			</linearGradient>
			<path class="st32" d="M356.3,136.9c0,0,3.6-15.7,11.9-25.7c0,0,24.9,31.3-7.5,51.1L356.3,136.9z"/>
		</g>
		
			<linearGradient id="SVGID_29_" gradientUnits="userSpaceOnUse" x1="-1698.9409" y1="197.6035" x2="-1663.8425" y2="211.4731" gradientTransform="matrix(-1 0 0 1 -1605.9022 0)">
			<stop  offset="0" style="stop-color:#6F52EB"/>
			<stop  offset="1" style="stop-color:#8372FF"/>
		</linearGradient>
		<path class="st33" d="M91.8,184.6c0,0-17.4,4.2-23.6,22.1c0,0,15.7,5.5,30.8,2.1C114.1,205.4,91.8,184.6,91.8,184.6z"/>
		<path class="st5" d="M100.3,195.4c0,0-13.4,1.9-22.3,6.8c0,0,11.5-3.8,25.7-4.9L100.3,195.4z"/>
		<g>
			
				<linearGradient id="SVGID_30_" gradientUnits="userSpaceOnUse" x1="-1718.2333" y1="192.3817" x2="-1688.6121" y2="174.4028" gradientTransform="matrix(-1 0 0 1 -1605.9022 0)">
				<stop  offset="0" style="stop-color:#6752EB"/>
				<stop  offset="1" style="stop-color:#8372FF"/>
			</linearGradient>
			<path class="st34" d="M115.5,199.8c0,0-22.5,1.9-30-11.9c-7.5-13.8-5.9-20.6-5.9-20.6s30.9-0.6,41.5,22.3L115.5,199.8z"/>
			<path class="st5" d="M114.3,196.6c0,0-14.3-17.6-32-25.5c0,0,20.4,6.4,33.2,24.2L114.3,196.6z"/>
			
				<linearGradient id="SVGID_31_" gradientUnits="userSpaceOnUse" x1="-1688.5912" y1="201.1028" x2="-1704.1353" y2="182.7799" gradientTransform="matrix(-1 0 0 1 -1605.9022 0)">
				<stop  offset="0" style="stop-color:#AF8AFF"/>
				<stop  offset="1" style="stop-color:#AF8AFF;stop-opacity:0"/>
			</linearGradient>
			<path class="st35" d="M115.5,199.8c0,0-22.5,1.9-30-11.9c-7.5-13.8-5.9-20.6-5.9-20.6s30.9-0.6,41.5,22.3L115.5,199.8z"/>
		</g>
		<g>
			
				<linearGradient id="SVGID_32_" gradientUnits="userSpaceOnUse" x1="-1732.119" y1="202.9423" x2="-1692.2087" y2="216.5288" gradientTransform="matrix(-1 0 0 1 -1605.9022 0)">
				<stop  offset="0" style="stop-color:#7054F4"/>
				<stop  offset="1" style="stop-color:#8372FF"/>
			</linearGradient>
			<path class="st36" d="M113.5,189.7c-24,6.6-24.6,29.3-29.9,41.2c0,0,25.5,4.3,37.6-19.8C124.9,201.5,128.5,190.6,113.5,189.7z"/>
			<path class="st5" d="M115.1,198.7c0,0-15.1,9.6-21.1,24c0,0,13.6-19.2,23.6-21.9L115.1,198.7z"/>
			
				<linearGradient id="SVGID_33_" gradientUnits="userSpaceOnUse" x1="-1710.1527" y1="234.8815" x2="-1709.964" y2="218.0862" gradientTransform="matrix(-1 0 0 1 -1605.9022 0)">
				<stop  offset="0" style="stop-color:#AF8AFF"/>
				<stop  offset="1" style="stop-color:#AF8AFF;stop-opacity:0"/>
			</linearGradient>
			<path class="st37" d="M113.5,189.7c-24,6.6-24.6,29.3-29.9,41.2c0,0,25.5,4.3,37.6-19.8C124.9,201.5,128.5,190.6,113.5,189.7z"/>
		</g>
		<g>
			
				<linearGradient id="SVGID_34_" gradientUnits="userSpaceOnUse" x1="-1726.792" y1="171.1608" x2="-1697.4203" y2="150.6006" gradientTransform="matrix(-1 0 0 1 -1605.9022 0)">
				<stop  offset="0" style="stop-color:#7054F4"/>
				<stop  offset="1" style="stop-color:#8372FF"/>
			</linearGradient>
			<path class="st38" d="M123.3,158.9c0,0-10.2-14.1-39.6-11.7c0,0,5.1,1.5,9.5,12.6c4.4,11.1,13.9,21.4,30.7,17.4L123.3,158.9z"/>
			<path class="st5" d="M120.4,170.3c0,0-14-13.5-27.8-18.8c0,0,12.2,2.7,29.4,17.8L120.4,170.3z"/>
			
				<linearGradient id="SVGID_35_" gradientUnits="userSpaceOnUse" x1="-1699.917" y1="174.5556" x2="-1710.1074" y2="161.7232" gradientTransform="matrix(-1 0 0 1 -1605.9022 0)">
				<stop  offset="0" style="stop-color:#AF8AFF"/>
				<stop  offset="1" style="stop-color:#AF8AFF;stop-opacity:0"/>
			</linearGradient>
			<path class="st39" d="M123.3,158.9c0,0-10.2-14.1-39.6-11.7c0,0,5.1,1.5,9.5,12.6c4.4,11.1,13.9,21.4,30.7,17.4L123.3,158.9z"/>
		</g>
		<g>
			
				<linearGradient id="SVGID_36_" gradientUnits="userSpaceOnUse" x1="-1680.4639" y1="-453.6344" x2="-1664.6621" y2="-453.6344" gradientTransform="matrix(-0.9754 -0.2204 -0.2204 0.9754 -1644.0576 136.2384)">
				<stop  offset="0" style="stop-color:#7054F4"/>
				<stop  offset="1" style="stop-color:#8372FF"/>
			</linearGradient>
			<path class="st40" d="M93.3,71.8c0,0-4-10.1-12-18.8C81.4,53,85.7,65.5,93.3,71.8z"/>
			
				<linearGradient id="SVGID_37_" gradientUnits="userSpaceOnUse" x1="-1686.527" y1="-453.8206" x2="-1678.5844" y2="-453.8206" gradientTransform="matrix(-0.9754 -0.2204 -0.2204 0.9754 -1644.0576 136.2384)">
				<stop  offset="0" style="stop-color:#7054F4"/>
				<stop  offset="1" style="stop-color:#8372FF"/>
			</linearGradient>
			<path class="st41" d="M98.3,77.2c0,0-3.4-12.8-2.4-25.5C95.9,51.7,100.1,65.5,98.3,77.2z"/>
			
				<linearGradient id="SVGID_38_" gradientUnits="userSpaceOnUse" x1="-1685.8519" y1="-441.9713" x2="-1660.6467" y2="-441.9713" gradientTransform="matrix(-0.9754 -0.2204 -0.2204 0.9754 -1644.0576 136.2384)">
				<stop  offset="0" style="stop-color:#7054F4"/>
				<stop  offset="1" style="stop-color:#8372FF"/>
			</linearGradient>
			<path class="st42" d="M73.3,70.5c0,0,11.7,5.8,24.2,7.2C97.5,77.7,84.9,70.9,73.3,70.5z"/>
			
				<linearGradient id="SVGID_39_" gradientUnits="userSpaceOnUse" x1="-1693.651" y1="-434.5384" x2="-1667.3422" y2="-434.5384" gradientTransform="matrix(-0.9754 -0.2204 -0.2204 0.9754 -1644.0576 136.2384)">
				<stop  offset="0" style="stop-color:#7054F4"/>
				<stop  offset="1" style="stop-color:#8372FF"/>
			</linearGradient>
			<path class="st43" d="M78.1,79.8c0,0,12.5,5.6,25.6,6.3C103.6,86.1,90.2,79.4,78.1,79.8z"/>
			
				<linearGradient id="SVGID_40_" gradientUnits="userSpaceOnUse" x1="-1703.2559" y1="-427.0107" x2="-1676.3037" y2="-427.0107" gradientTransform="matrix(-0.9754 -0.2204 -0.2204 0.9754 -1644.0576 136.2384)">
				<stop  offset="0" style="stop-color:#7054F4"/>
				<stop  offset="1" style="stop-color:#8372FF"/>
			</linearGradient>
			<path class="st44" d="M85.2,89c0,0,12.8,6,26.1,6.6C111.3,95.7,97.6,88.6,85.2,89z"/>
			
				<linearGradient id="SVGID_41_" gradientUnits="userSpaceOnUse" x1="-1712.1511" y1="-418.5032" x2="-1685.5583" y2="-418.5032" gradientTransform="matrix(-0.9754 -0.2204 -0.2204 0.9754 -1644.0576 136.2384)">
				<stop  offset="0" style="stop-color:#7054F4"/>
				<stop  offset="1" style="stop-color:#8372FF"/>
			</linearGradient>
			<path class="st45" d="M91.8,101.8c0,0,13.7,3.4,26.9,1.5C118.7,103.2,103.9,98.9,91.8,101.8z"/>
			
				<linearGradient id="SVGID_42_" gradientUnits="userSpaceOnUse" x1="-1694.8207" y1="-447.693" x2="-1689.0786" y2="-447.693" gradientTransform="matrix(-0.9754 -0.2204 -0.2204 0.9754 -1644.0576 136.2384)">
				<stop  offset="0" style="stop-color:#7054F4"/>
				<stop  offset="1" style="stop-color:#8372FF"/>
			</linearGradient>
			<path class="st46" d="M105,85.3c0,0-2.2-13-0.1-25.6C104.9,59.6,107.8,73.8,105,85.3z"/>
			
				<linearGradient id="SVGID_43_" gradientUnits="userSpaceOnUse" x1="-1704.9976" y1="-442.2133" x2="-1700.045" y2="-442.2133" gradientTransform="matrix(-0.9754 -0.2204 -0.2204 0.9754 -1644.0576 136.2384)">
				<stop  offset="0" style="stop-color:#7054F4"/>
				<stop  offset="1" style="stop-color:#8372FF"/>
			</linearGradient>
			<path class="st47" d="M113.2,93.9c0,0-2-14.3,1.4-27.6C114.7,66.3,117.5,82,113.2,93.9z"/>
			
				<linearGradient id="SVGID_44_" gradientUnits="userSpaceOnUse" x1="-1714.2839" y1="-436.9359" x2="-1710.3217" y2="-436.9359" gradientTransform="matrix(-0.9754 -0.2204 -0.2204 0.9754 -1644.0576 136.2384)">
				<stop  offset="0" style="stop-color:#7054F4"/>
				<stop  offset="1" style="stop-color:#8372FF"/>
			</linearGradient>
			<path class="st48" d="M120.8,101.2c0,0-1.3-14.4,2.9-27.5C123.7,73.7,125.7,89.4,120.8,101.2z"/>
			<path class="st21" d="M127,107.1c0,0-12.9-7.8-33.3-34.6c0,0,19.7,29.3,32.6,37.4L127,107.1z"/>
		</g>
		<g>
			
				<linearGradient id="SVGID_45_" gradientUnits="userSpaceOnUse" x1="-1718.036" y1="678.5344" x2="-1702.2343" y2="678.5344" gradientTransform="matrix(-0.9677 0.252 0.252 0.9677 -1744.9862 -115.32)">
				<stop  offset="0" style="stop-color:#7054F4"/>
				<stop  offset="1" style="stop-color:#8372FF"/>
			</linearGradient>
			<path class="st49" d="M90.5,115.9c0,0-8.1-7.1-19.2-11.2C71.3,104.8,80.9,113.9,90.5,115.9z"/>
			
				<linearGradient id="SVGID_46_" gradientUnits="userSpaceOnUse" x1="-1724.0992" y1="678.3483" x2="-1716.1569" y2="678.3483" gradientTransform="matrix(-0.9677 0.252 0.252 0.9677 -1744.9862 -115.32)">
				<stop  offset="0" style="stop-color:#7054F4"/>
				<stop  offset="1" style="stop-color:#8372FF"/>
			</linearGradient>
			<path class="st50" d="M97.4,118.4c0,0-8.9-9.8-13.8-21.6C83.6,96.9,93.7,107.2,97.4,118.4z"/>
			
				<linearGradient id="SVGID_47_" gradientUnits="userSpaceOnUse" x1="-1723.4241" y1="690.1976" x2="-1698.2185" y2="690.1976" gradientTransform="matrix(-0.9677 0.252 0.252 0.9677 -1744.9862 -115.32)">
				<stop  offset="0" style="stop-color:#7054F4"/>
				<stop  offset="1" style="stop-color:#8372FF"/>
			</linearGradient>
			<path class="st51" d="M72.1,124c0,0,13.1-0.2,24.8-4.7C97,119.2,82.7,119,72.1,124z"/>
			
				<linearGradient id="SVGID_48_" gradientUnits="userSpaceOnUse" x1="-1731.2231" y1="697.6308" x2="-1704.9139" y2="697.6308" gradientTransform="matrix(-0.9677 0.252 0.252 0.9677 -1744.9862 -115.32)">
				<stop  offset="0" style="stop-color:#7054F4"/>
				<stop  offset="1" style="stop-color:#8372FF"/>
			</linearGradient>
			<path class="st52" d="M80.6,130.1c0,0,13.7-0.7,25.6-6.2C106.2,123.9,91.2,124.2,80.6,130.1z"/>
			
				<linearGradient id="SVGID_49_" gradientUnits="userSpaceOnUse" x1="-1740.8281" y1="705.1588" x2="-1713.8755" y2="705.1588" gradientTransform="matrix(-0.9677 0.252 0.252 0.9677 -1744.9862 -115.32)">
				<stop  offset="0" style="stop-color:#7054F4"/>
				<stop  offset="1" style="stop-color:#8372FF"/>
			</linearGradient>
			<path class="st53" d="M91.2,135c0,0,14.1-0.5,26.3-6.1C117.4,128.9,102,128.9,91.2,135z"/>
			
				<linearGradient id="SVGID_50_" gradientUnits="userSpaceOnUse" x1="-1749.7234" y1="713.6666" x2="-1723.13" y2="713.6666" gradientTransform="matrix(-0.9677 0.252 0.252 0.9677 -1744.9862 -115.32)">
				<stop  offset="0" style="stop-color:#7054F4"/>
				<stop  offset="1" style="stop-color:#8372FF"/>
			</linearGradient>
			<path class="st54" d="M102.9,143.3c0,0,13.7-3.2,24.6-11.1C127.5,132.2,112.3,135.2,102.9,143.3z"/>
			
				<linearGradient id="SVGID_51_" gradientUnits="userSpaceOnUse" x1="-1732.3929" y1="684.4762" x2="-1726.6512" y2="684.4762" gradientTransform="matrix(-0.9677 0.252 0.252 0.9677 -1744.9862 -115.32)">
				<stop  offset="0" style="stop-color:#7054F4"/>
				<stop  offset="1" style="stop-color:#8372FF"/>
			</linearGradient>
			<path class="st55" d="M107.1,122.6c0,0-8-10.6-11.8-22.7C95.2,99.8,104.3,111.1,107.1,122.6z"/>
			
				<linearGradient id="SVGID_52_" gradientUnits="userSpaceOnUse" x1="-1742.5698" y1="689.9562" x2="-1737.6178" y2="689.9562" gradientTransform="matrix(-0.9677 0.252 0.252 0.9677 -1744.9862 -115.32)">
				<stop  offset="0" style="stop-color:#7054F4"/>
				<stop  offset="1" style="stop-color:#8372FF"/>
			</linearGradient>
			<path class="st56" d="M118.4,126.5c0,0-8.4-11.8-11.4-25.2C107,101.3,116.7,113.9,118.4,126.5z"/>
			
				<linearGradient id="SVGID_53_" gradientUnits="userSpaceOnUse" x1="-1751.8564" y1="695.2338" x2="-1747.8943" y2="695.2338" gradientTransform="matrix(-0.9677 0.252 0.252 0.9677 -1744.9862 -115.32)">
				<stop  offset="0" style="stop-color:#7054F4"/>
				<stop  offset="1" style="stop-color:#8372FF"/>
			</linearGradient>
			<path class="st57" d="M128.4,129.4c0,0-7.7-12.2-10.1-25.7C118.4,103.7,127.4,116.7,128.4,129.4z"/>
			<path class="st21" d="M136.7,131.8c0,0-15-1-45.4-15.5c0,0,30.9,17,46.2,18.3L136.7,131.8z"/>
		</g>
		<g>
			
				<linearGradient id="SVGID_54_" gradientUnits="userSpaceOnUse" x1="-1724.6711" y1="152.9395" x2="-1720.1422" y2="120.9545" gradientTransform="matrix(-1 0 0 1 -1605.9022 0)">
				<stop  offset="0" style="stop-color:#7357F5"/>
				<stop  offset="1" style="stop-color:#8372FF"/>
			</linearGradient>
			<path class="st58" d="M127.1,136.9c0,0-3.6-15.7-11.9-25.7c0,0-24.9,31.3,7.5,51.1L127.1,136.9z"/>
			<path class="st5" d="M122.9,152.9c0,0-8.3-11.1-7.7-28.3c0,0,0.9,17,8.7,26.4L122.9,152.9z"/>
			
				<linearGradient id="SVGID_55_" gradientUnits="userSpaceOnUse" x1="-1709.2308" y1="147.3265" x2="-1721.884" y2="138.7928" gradientTransform="matrix(-1 0 0 1 -1605.9022 0)">
				<stop  offset="0" style="stop-color:#AF8AFF"/>
				<stop  offset="1" style="stop-color:#AF8AFF;stop-opacity:0"/>
			</linearGradient>
			<path class="st59" d="M127.1,136.9c0,0-3.6-15.7-11.9-25.7c0,0-24.9,31.3,7.5,51.1L127.1,136.9z"/>
		</g>
		<g>
			<path class="st60" d="M362.2,70v147.8c0,1.8-1.5,3.2-3.2,3.2H123.8c-2.3,0-4.2-1.9-4.2-4.2V70c0-1.7,0.3-3.3,0.9-4.8
				c1.9-5,6.8-8.5,12.4-8.5h216c5.7,0,10.5,3.5,12.4,8.5C361.9,66.7,362.2,68.3,362.2,70z"/>
			<path class="st61" d="M362.2,70v135H119.6V70c0-1.7,0.3-3.3,0.9-4.8h240.8C361.9,66.7,362.2,68.3,362.2,70z"/>
			<path class="st61" d="M245.3,212.4c0,2.4-1.9,4.3-4.3,4.3c-2.4,0-4.3-1.9-4.3-4.3c0-2.4,1.9-4.3,4.3-4.3
				C243.4,208.1,245.3,210,245.3,212.4z"/>
			<circle class="st62" cx="211.4" cy="60.9" r="1.8"/>
			<linearGradient id="SVGID_56_" gradientUnits="userSpaceOnUse" x1="239.3336" y1="202.2338" x2="240.5004" y2="239.5733">
				<stop  offset="0" style="stop-color:#B8A093"/>
				<stop  offset="1" style="stop-color:#DAC1FF"/>
			</linearGradient>
			<polygon class="st63" points="276.2,242.9 205,242.9 212.3,239.6 216.5,221 264.9,221 268.8,239.8 			"/>
			<path class="st64" d="M275.9,243.8h-70.3c-0.3,0-0.6-0.3-0.6-0.6v0c0-0.3,0.3-0.6,0.6-0.6h70.3c0.3,0,0.6,0.3,0.6,0.6v0
				C276.4,243.5,276.2,243.8,275.9,243.8z"/>
			<line class="st65" x1="219.8" y1="60.9" x2="271.9" y2="60.9"/>
			<rect x="128.4" y="71.2" class="st66" width="224.9" height="128.6"/>
			<path class="st62" d="M152.3,86.4v9.9h-7.6c-2.7,0-5-2.2-5-5c0-1.4,0.6-2.6,1.5-3.5c0.9-0.9,2.1-1.5,3.5-1.5H152.3z"/>
			<rect x="128.4" y="71.2" class="st67" width="224.9" height="6.7"/>
			<path class="st68" d="M202.2,91.4c0,1.4-0.6,2.6-1.5,3.5c-0.9,0.9-2.1,1.5-3.5,1.5h-44.9v-9.9h44.9
				C200,86.4,202.2,88.6,202.2,91.4z"/>
			<rect x="139.7" y="107.1" class="st69" width="27.7" height="27.7"/>
			<rect x="174.6" y="107.1" class="st69" width="27.7" height="27.7"/>
			<rect x="208" y="107.1" class="st69" width="27.7" height="27.7"/>
			<rect x="139.7" y="144.8" class="st69" width="27.7" height="27.7"/>
			<rect x="174.6" y="144.8" class="st69" width="27.7" height="27.7"/>
			<rect x="208" y="144.8" class="st69" width="27.7" height="27.7"/>
			<rect x="214.1" y="97.4" class="st62" width="31.8" height="31.8"/>
			<path class="st69" d="M181.1,194.6h-39.4c-1.1,0-2-0.9-2-2l0,0c0-1.1,0.9-2,2-2h39.4c1.1,0,2,0.9,2,2l0,0
				C183.2,193.7,182.3,194.6,181.1,194.6z"/>
			<path class="st69" d="M237.6,194.6h-39.4c-1.1,0-2-0.9-2-2l0,0c0-1.1,0.9-2,2-2h39.4c1.1,0,2,0.9,2,2l0,0
				C239.6,193.7,238.7,194.6,237.6,194.6z"/>
			<path class="st69" d="M333,194.6h-39.4c-1.1,0-2-0.9-2-2l0,0c0-1.1,0.9-2,2-2H333c1.1,0,2,0.9,2,2l0,0
				C335,193.7,334.1,194.6,333,194.6z"/>
			<rect x="284.1" y="107.1" class="st69" width="16.6" height="16.6"/>
			<rect x="284.1" y="127.2" class="st69" width="16.6" height="16.6"/>
			<rect x="304.7" y="107.1" class="st69" width="16.6" height="16.6"/>
			<rect x="304.7" y="127.2" class="st69" width="16.6" height="16.6"/>
			<rect x="325.7" y="107.1" class="st69" width="16.6" height="16.6"/>
			<rect x="325.7" y="127.2" class="st69" width="16.6" height="16.6"/>
			<path class="st70" d="M287.5,158.7h54.8V152h-54.8c-1.9,0-3.4,1.5-3.4,3.4l0,0C284.1,157.2,285.6,158.7,287.5,158.7z"/>
			<path class="st70" d="M287.5,169.3h54.8v-6.7h-54.8c-1.9,0-3.4,1.5-3.4,3.4l0,0C284.1,167.8,285.6,169.3,287.5,169.3z"/>
			<path class="st70" d="M313.1,180h29.2v-6.7h-29.2c-1.9,0-3.4,1.5-3.4,3.4v0C309.8,178.5,311.3,180,313.1,180z"/>
			<path class="st71" d="M146.6,89.2c-0.8-0.8-2-0.8-2.8,0c-0.8,0.8-0.8,2,0,2.8c0.7,0.7,1.7,0.8,2.5,0.3l1.8,1.9
				c0.2,0.2,0.5,0.2,0.7,0c0.2-0.2,0.2-0.5,0-0.7l-1.9-1.9C147.3,90.8,147.2,89.9,146.6,89.2z M146.2,91.6c-0.6,0.5-1.5,0.5-2,0
				c-0.5-0.6-0.5-1.5,0-2c0.6-0.5,1.5-0.5,2,0C146.7,90.2,146.7,91.1,146.2,91.6z"/>
		</g>
		<g>
			<path class="st72" d="M126,307.7c0,0-1.4,3.4-1.1,6.4c0,0,3.4,0.9,7.5-0.3c2.6-0.7,8.7-1.2,9-3c1.4-7.9-3.4,0.6-9.4-3.8
				L126,307.7z"/>
			<path class="st72" d="M151.4,307.7c0,0-1.4,3.4-1.1,6.4c0,0,3.4,0.9,7.5-0.3c2.6-0.7,9.4-0.1,10.2-1.8c3.2-6.7-4.7-0.6-10.6-5
				L151.4,307.7z"/>
			<linearGradient id="SVGID_57_" gradientUnits="userSpaceOnUse" x1="165.7646" y1="204.6902" x2="138.2042" y2="285.233">
				<stop  offset="0" style="stop-color:#2B1CB8"/>
				<stop  offset="1" style="stop-color:#3326B0"/>
			</linearGradient>
			<path class="st73" d="M163.9,214.3c0,25.8-3.1,55.9-5.1,90.2c-0.1,1.1-0.1,2.1-0.2,3.2h-7.3l-0.1-3.2l-0.7-41.1l-1.8-24.6
				l-0.7-9.7l-0.1,0.6l-14.5,74.7l-0.6,3.2H126c0-1.1,0-2.1,0.1-3.2c0.5-19.3,2.8-42.1,6.2-66.7l1.1-20.6c0,0,15.9-6.4,26.1-4.6
				C161.1,213,162.6,213.5,163.9,214.3z"/>
			<linearGradient id="SVGID_58_" gradientUnits="userSpaceOnUse" x1="147.7169" y1="216.1046" x2="128.7712" y2="326.6997">
				<stop  offset="0" style="stop-color:#241F68"/>
				<stop  offset="1" style="stop-color:#241F68;stop-opacity:0"/>
			</linearGradient>
			<path class="st74" d="M148,229.8l-14.5,74.7l-0.6,3.2h-2.8c0.8-11.2,4.3-30.3,7.6-39.6c2.3-6.7,1.2-14.7,3-24.8
				c1.7-10.2,6.7-22.5,6.7-22.5L148,229.8z"/>
			<linearGradient id="SVGID_59_" gradientUnits="userSpaceOnUse" x1="167.7913" y1="208.9256" x2="147.6408" y2="326.5537">
				<stop  offset="0" style="stop-color:#241F68"/>
				<stop  offset="1" style="stop-color:#241F68;stop-opacity:0"/>
			</linearGradient>
			<path class="st75" d="M163.9,214.3c0,25.8-3.1,55.9-5.1,90.2c-0.1,1.1-0.1,2.1-0.2,3.2h-1.7c-1-11.4,1.1-32.2,2.6-50.4
				c0.9-10.2,0.4-22.4,0-30c-0.2-4.4-0.2-10.4-0.1-14.6C161.1,213,162.6,213.5,163.9,214.3z"/>
			<path class="st21" d="M142.7,162.1c0,0-4.6,4.3-7-0.5c-2.5-4.7-9.6-13.7-4.2-15.4c0,0-1.4-1.9,0.1-4c0,0-0.5,1.4,0.7,3.1
				c0,0-1.7-5,6.2-5.8c7.9-0.8,7.8-4.6,7.8-4.6s0.5,1.3,0.1,3.1c0,0,0.7-0.7,1-3.4c0,0,2.2,3.2,0.6,8c0,0,0.7-1.3,1.1-2.6
				c0,0,0.1,6.1-2.3,8.6l0.6,9.1L142.7,162.1z"/>
			<linearGradient id="SVGID_60_" gradientUnits="userSpaceOnUse" x1="138.0363" y1="157.6752" x2="150.015" y2="157.6752">
				<stop  offset="0" style="stop-color:#7054F4"/>
				<stop  offset="1" style="stop-color:#8372FF"/>
			</linearGradient>
			<path class="st76" d="M149,163c0,0.1-0.1,0.1-0.1,0.2c-0.8,0.8-3.2-0.2-3.2-0.2l1.1,4.4l0,0.1l-1.5,0.3c0,0,0,0,0,0l-0.6,0.1
				c0,0,0,0,0,0l-6.6,1.3l0.6-5.2c6.5-0.7,6.5-8.5,6.5-8.5c-2.2,0.7-3.4-5.1-1.7-5c1.7,0.1,2.7,4.3,2.7,4.3c0.1-1.4,0-3-0.2-4.1
				c-0.1-0.8-0.3-1.3-0.3-1.3c1.7-0.9,2.5-3.1,2.5-3.1c0.1,0.3,0.2,0.5,0.3,0.8C151.2,155.5,149.6,162,149,163z"/>
			<path class="st77" d="M145.7,163l1.1,4.4c-0.6,0.2-1.1,0.3-1.4,0.4c0,0,0,0,0,0c-0.4,0.1-0.6,0.1-0.6,0.1c0,0,0,0,0,0l0.6-8.1
				c0.9,3.2,2.2,3,3.6,3.4C148.1,164,145.7,163,145.7,163z"/>
			<path class="st77" d="M148.4,147c-0.5,1.6-1.8,3-2.5,3.6c-0.1-0.8-0.3-1.3-0.3-1.3c1.7-0.9,2.5-3.1,2.5-3.1
				C148.2,146.5,148.3,146.7,148.4,147z"/>
			<linearGradient id="SVGID_61_" gradientUnits="userSpaceOnUse" x1="163.4973" y1="178.5157" x2="175.7747" y2="164.5532">
				<stop  offset="0" style="stop-color:#7054F4"/>
				<stop  offset="1" style="stop-color:#8372FF"/>
			</linearGradient>
			<path class="st78" d="M162.7,175.8c0,0,5.2-5,5.7-6.4c0.5-1.4,1.7-4,3.4-4.4l-0.5,2.9c0,0,1.4-0.5,1.6-0.8c0.2-0.2,0.4-2,0.6-2
				c0.2,0,0.9,2.7,0.2,3.4c-0.6,0.7-2,2-3.4,2.3l-1,3.6l-2.3,5L162.7,175.8z"/>
			<path class="st79" d="M183.6,147.5c0,0,4,0.9,6,0.7c2-0.2,7.9-5.1,8.9-6.7c1-1.6-10.8,0.5-10.8,0.5L183.6,147.5z"/>
			
				<ellipse transform="matrix(0.3132 -0.9497 0.9497 0.3132 25.6463 258.9429)" class="st79" cx="191.9" cy="111.7" rx="32.1" ry="28.9"/>
			<linearGradient id="SVGID_62_" gradientUnits="userSpaceOnUse" x1="136.3121" y1="169.7899" x2="148.9974" y2="169.7899">
				<stop  offset="0" style="stop-color:#DFC7FF"/>
				<stop  offset="1" style="stop-color:#FFFFFF"/>
			</linearGradient>
			<path class="st80" d="M149,169.7l-1.6-3c0,0-5.8-0.9-11.1,2.2v3.9L149,169.7z"/>
			<path class="st81" d="M196.4,79.8c-15.6-3.5-31.6,7.6-35.9,24.8c-3.3,13.4,1.5,26.5,11.1,33.4l0.5,2.5c0.4,1.9,1.6,3.5,3.4,4.4
				c0.6,0.3,1.3,0.6,1.9,0.9l-16.2,56.4l2.3,13.2l20-68c0.2,0,0.5,0,0.7,0.1c1.7,0.1,3.4-0.4,4.7-1.4l6.3-4.7l0,0
				c10.1-3.3,18.7-12.2,21.6-24.1C221.2,100.2,212,83.3,196.4,79.8z"/>
			<linearGradient id="SVGID_63_" gradientUnits="userSpaceOnUse" x1="175.3367" y1="183.108" x2="179.1418" y2="157.5911">
				<stop  offset="0" style="stop-color:#7054F4"/>
				<stop  offset="1" style="stop-color:#8372FF"/>
			</linearGradient>
			<path class="st82" d="M184.5,149.6c-0.3,2.4-0.3,4.4-0.5,4.8c-0.7,1.4-1.1,2.3-2.3,4c-0.3,0.5-0.6,1.3-0.8,2.4
				c-0.4,2.7-0.4,7.8-0.9,10.8c-0.3,2.4-0.8,5.4-1.2,7.9c-0.1,0.8-0.2,1.6-0.3,2.3c-0.2,1.6-0.4,2.7-0.4,2.7l-6.8-3.6
				c0.2-0.7,0.3-1.4,0.5-2c0.1-0.2,0.1-0.4,0.2-0.6c0.3-0.9,0.5-1.7,0.8-2.4c0.8-2.1,1.4-4,2.3-6.8c1.2-4,1.8-9.6,1.8-9.6
				c-1.3-2.8-1.1-7.7-1.1-8.6c0-1.1,0.1-2.1,0.5-1.8c1,0.7,1,2.1,1,2.1s-0.1,2.1,0.7,2.5c0.1,0.1,0.1,0.1,0.9,0
				c2.2-0.1,3.3-0.8,3.3-0.8l1.3-4.2C183.6,148.5,184.6,148.9,184.5,149.6z"/>
			<path class="st77" d="M178.9,179.4c-0.1,0.8-0.2,1.6-0.3,2.3l-6.7-2.9c0.1-0.2,0.1-0.4,0.2-0.6c0.3-0.9,0.5-1.7,0.8-2.4
				L178.9,179.4z"/>
			<linearGradient id="SVGID_64_" gradientUnits="userSpaceOnUse" x1="147.7558" y1="226.4962" x2="153.6759" y2="165.6377">
				<stop  offset="0" style="stop-color:#DFC7FF"/>
				<stop  offset="1" style="stop-color:#FFFFFF"/>
			</linearGradient>
			<path class="st83" d="M178.4,183.2c0,0-1.1,4.4-2.3,7.3c-0.4,1.1-0.9,2-1.2,2.2c-1.4,1.1-12.7-6.2-12.7-6.2l0.2,2.8c0,0,0,0,0,0
				l1.4,21.8l0.2,3.2c0,0-12.6,7.7-30.5,3.7l0.2-2.6l0.6-9.1l0.1-1.9v0l0.1-1.8c0,0,0,0,0,0c0,0,0-0.1,0-0.1c0,0,0,0-0.1-0.1
				c-0.7-0.6-5.1-4.5-6.1-7.8c-1.7-6.3-3.3-18-1.2-19.4c1.2-0.8,2.5-1.5,3.9-2.2c10.7-5.3,25.9-6.7,27.5-5c0.2,0.2,0.3,0.3,0.5,0.5
				c6.8,7.1,11.8,13.5,11.8,13.5l1.2-2.6L178.4,183.2z"/>
			<linearGradient id="SVGID_65_" gradientUnits="userSpaceOnUse" x1="155.1709" y1="201.0506" x2="175.5058" y2="174.3684">
				<stop  offset="0" style="stop-color:#B1AFFF"/>
				<stop  offset="1" style="stop-color:#B1AFFF;stop-opacity:0"/>
			</linearGradient>
			<path class="st84" d="M176.2,190.5c-0.4,1.1-0.9,2-1.2,2.2c-1.4,1.1-12.8-6.3-12.8-6.3s-0.7-4.3-1.7-9.9c2.1,5.6,2.5,7.7,5.8,8.9
				C170.8,187.2,171.9,192.2,176.2,190.5z"/>
			<linearGradient id="SVGID_66_" gradientUnits="userSpaceOnUse" x1="141.2235" y1="189.6398" x2="113.6745" y2="191.1157">
				<stop  offset="0" style="stop-color:#B1AFFF"/>
				<stop  offset="1" style="stop-color:#B1AFFF;stop-opacity:0"/>
			</linearGradient>
			<path class="st85" d="M134.4,199.9c-0.1-0.1-0.4-0.3-0.7-0.6c-0.6-1.8-1.3-4.2-1.4-5c-0.1-1.3,0-14.2,0-14.2
				C134.4,187.9,134.3,196.6,134.4,199.9z"/>
			<linearGradient id="SVGID_67_" gradientUnits="userSpaceOnUse" x1="150.1477" y1="223.6845" x2="140.312" y2="128.8001">
				<stop  offset="0" style="stop-color:#DFD5A2"/>
				<stop  offset="1" style="stop-color:#EDDA4A"/>
			</linearGradient>
			<path class="st86" d="M163.7,211.1c-1.2,0.6-2.4,1.1-3.6,1.6c-11.6,4.6-21,4-26.6,2.7l0.6-9.1c0.1-0.6,0.1-1.2,0.1-1.9v0
				c0-0.7,0-1.3,0-2c0.1-12.4-2-23.3-3.4-29.4c10.7-5.3,25.9-6.7,27.5-5c0.2,0.2,0.3,0.3,0.5,0.5c1,3.7,1.8,7.8,2.4,11.8
				c0.5,3.1,0.8,6.2,1.1,9c0,0,0,0,0,0L163.7,211.1z"/>
			<path class="st87" d="M213.3,114.2c-0.1,0.7-0.3,1.5-0.5,2.2c-2.5,10.1-9.7,17.7-18.3,20.5c-2.7,0.9-5.6,1.3-8.5,1.1
				c-1.3-0.1-2.5-0.2-3.8-0.5c-2.2-0.5-4.3-1.3-6.2-2.4c-9.4-5.4-14.4-17.4-11.3-29.7c3.6-14.7,17.3-24.2,30.6-21.2
				c2.5,0.6,4.8,1.6,6.9,2.9c5.9,3.7,9.9,10.1,11.1,17.4C213.8,107.7,213.8,111,213.3,114.2z"/>
			<path class="st88" d="M177.9,141.1"/>
			<path class="st79" d="M200.8,86.4c-0.6-0.2-1.3-0.4-1.9-0.5c-13.3-3-27,6.5-30.6,21.2c-3.1,12.6,2.2,24.9,12.1,30.1
				c-12.1-3.9-19-17.6-15.6-31.6c3.6-14.7,17.3-24.2,30.6-21.2C197.2,84.8,199.1,85.5,200.8,86.4z"/>
			<polygon class="st89" points="170.2,180.4 172,177.5 178.9,180.4 178.7,185.8 			"/>
			<linearGradient id="SVGID_68_" gradientUnits="userSpaceOnUse" x1="229.9549" y1="159.1976" x2="179.8693" y2="94.7039">
				<stop  offset="0" style="stop-color:#FFFFFF"/>
				<stop  offset="1" style="stop-color:#FFFFFF;stop-opacity:0"/>
			</linearGradient>
			<path class="st90" d="M194.5,137l18.8-22.8c-0.1,0.7-0.3,1.5-0.5,2.2C210.3,126.6,203.1,134.2,194.5,137z"/>
			<linearGradient id="SVGID_69_" gradientUnits="userSpaceOnUse" x1="228.4616" y1="160.7577" x2="177.3388" y2="94.9284">
				<stop  offset="0" style="stop-color:#FFFFFF"/>
				<stop  offset="1" style="stop-color:#FFFFFF;stop-opacity:0"/>
			</linearGradient>
			<path class="st91" d="M213.3,104.7l-27.4,33.5c-1.3-0.1-2.5-0.2-3.8-0.5c-2.2-0.5-4.3-1.3-6.2-2.4l26.2-48
				C208.1,91,212.2,97.3,213.3,104.7z"/>
			<linearGradient id="SVGID_70_" gradientUnits="userSpaceOnUse" x1="163.4117" y1="221.156" x2="156.2491" y2="155.3495">
				<stop  offset="0" style="stop-color:#D5A734"/>
				<stop  offset="1" style="stop-color:#DEC17F;stop-opacity:0"/>
			</linearGradient>
			<path class="st92" d="M160.1,212.7c0.8-13.5,0.3-34,0.3-34l0.8,1.6c0.5,3.1,0.8,6.2,1.1,9c0,0,0,0,0,0l1.4,21.8
				C162.5,211.7,161.3,212.2,160.1,212.7z"/>
		</g>
		<g>
			<path class="st21" d="M351.4,160.9c0,0-0.6-2,0.2-7.3c0.9-5.3,0.6-8.4-2.3-7.8c0,0,0.9-5.1-4.8-4.8c0,0,2.7,0.3,2.7,2.3
				c0,0-1.9-3.2-7-0.2c-5.1,3-8.1,2.1-8.1,2.1s0.9,0.7,2.3,1.1c0,0-2.2,0.5-4.7-0.3c0,0,2.8,4.3,6.6,4.4c0,0-1.6,0.4-3.5-0.4
				c0,0,2.9,2.2,6.5,1.5l8.1,6.6L351.4,160.9z"/>
			<linearGradient id="SVGID_71_" gradientUnits="userSpaceOnUse" x1="353.8487" y1="168.9489" x2="339.9531" y2="152.6366">
				<stop  offset="0" style="stop-color:#7054F4"/>
				<stop  offset="1" style="stop-color:#8372FF"/>
			</linearGradient>
			<path class="st93" d="M353.9,163.5c-0.8,1.6-2.8,4.4-7.6,5.3l-0.5-3.8l-0.3-2.5c0,0-0.4,0.3-1,0.7c-0.9,0.6-2.2,1.2-3.4,1.2
				c-1.9,0-3.8-11.2-4.1-13c0-0.2,0-0.3,0-0.3c4.1-0.4,5.7-1.8,5.7-1.8c0.1,0.7,0.3,1.3,0.5,1.8c1.2,2.7,3.7,3.9,3.7,3.9
				c-0.6-2.2,0.7-4.4,1.7-2.9c1,1.5-0.4,3.7-0.4,3.7c1.9,4,5.1,7.2,5.1,7.2C353.5,163.3,353.7,163.4,353.9,163.5z"/>
			<path class="st72" d="M364.7,289.9c0,0-18.7,0.5-19.6-0.3c-1.1-1,11.1-4.7,12.9-5.3c3,0.5,4.8,0.2,5.6-0.1
				C364.9,285.8,364.7,289.9,364.7,289.9z"/>
			<linearGradient id="SVGID_72_" gradientUnits="userSpaceOnUse" x1="359.8006" y1="197.8854" x2="361.6131" y2="257.9988">
				<stop  offset="0" style="stop-color:#2B1CB8"/>
				<stop  offset="1" style="stop-color:#3326B0"/>
			</linearGradient>
			<path class="st94" d="M363.7,281.6v0.1c-0.9,0.1-1.9,0.2-2.8,0.2c-1.3,0-2.4-0.1-2.8-0.2l0-0.2c0,0-3-28.5-4.2-35.3
				c-1.2-6.8-1.6-26.1-4.5-36.4l14.4-2.3l7-1.1c0,0-3.7,24.2-5.3,34.4C363.9,250.9,367.9,254,363.7,281.6z"/>
			<path class="st95" d="M363.7,284.3c-0.9,0.2-2.7,0.5-5.6,0.1c0.1,0,0.2-0.1,0.2-0.1l-0.2-2.5c0.8,0.1,3.4,0.3,5.6,0v2.4
				C363.7,284.2,363.7,284.2,363.7,284.3z"/>
			<linearGradient id="SVGID_73_" gradientUnits="userSpaceOnUse" x1="366.678" y1="194.3829" x2="364.2614" y2="275.0373">
				<stop  offset="0" style="stop-color:#241F68"/>
				<stop  offset="1" style="stop-color:#241F68;stop-opacity:0"/>
			</linearGradient>
			<path class="st96" d="M363.7,281.6v0.1c-0.9,0.1-1.9,0.2-2.8,0.2c3.5-8.1,3.1-25.6,1.6-29.7c-1.7-4.8-2.7-7.1-0.7-15.1
				c1.9-8,1.4-27.7,1.4-27.7c0.2-0.7,0.4-1.4,0.7-2l7-1.1c0,0-3.7,24.2-5.3,34.4C363.9,250.9,367.9,254,363.7,281.6z"/>
			
				<rect x="325.8" y="158.9" transform="matrix(0.9951 -9.861970e-02 9.861970e-02 0.9951 -14.3304 32.9804)" class="st97" width="1.2" height="5.1"/>
			<path class="st98" d="M326.6,160.6l-0.6,0.1c-0.4,0-0.8-0.3-0.8-0.6l-0.9-9.1c0-0.4,0.3-0.8,0.6-0.8l0.6-0.1
				c0.4,0,0.8,0.3,0.8,0.6l0.9,9.1C327.3,160.2,327,160.5,326.6,160.6z"/>
			<linearGradient id="SVGID_74_" gradientUnits="userSpaceOnUse" x1="340.3499" y1="195.2171" x2="330.9855" y2="169.2385">
				<stop  offset="0" style="stop-color:#7054F4"/>
				<stop  offset="1" style="stop-color:#8372FF"/>
			</linearGradient>
			<path class="st99" d="M343.6,187.5c-0.2,0.2-0.6,0.6-1.2,1c-2.2,1.6-6.4,4.4-9,5.2c-0.8,0.3-1.5,0.3-1.9,0.1
				c-1.9-1.4-3.7-14.2-4.5-20.1c0,0,0-0.1,0-0.1c-0.1-0.5-0.1-0.9-0.2-1.3c0,0,0,0,0,0c-0.1-0.9-0.2-1.4-0.2-1.4s0,0,0,0
				c-0.2,0-1.1,0.2-2.2-0.4c-1.2-0.7,0.7-7,0.7-7s-1.7,0-1.7-0.6c0-0.6,4.8-2.4,5.1-1.5s0.9,8.9,2.9,13.8c0.6,1.4,1.1,2.8,1.6,3.9
				c0,0,0,0,0,0c0,0,0,0,0,0c0,0,0,0,0,0c1.1,2.7,1.7,4.4,1.7,4.4c0.6-0.2,1.1-0.5,1.7-0.8c3.2-1.8,6.2-5.3,6.2-5.3l0.5,5.8
				L343.6,187.5z"/>
			<path class="st77" d="M336.4,188.6c-1-3-3.1-8.9-3.3-9.5c1.1,2.7,1.7,4.4,1.7,4.4c0.6-0.2,1.1-0.5,1.7-0.8
				C336.7,186,336.4,188.6,336.4,188.6z"/>
			<path class="st77" d="M333.4,193.8c-0.8,0.3-1.5,0.3-1.9,0.1c-1.9-1.4-3.7-14.2-4.5-20.1c0,0,0-0.1,0-0.1c0-0.4-0.1-0.9-0.2-1.3
				c0,0,0,0,0,0c-0.1-0.5-0.1-0.9-0.2-1.4c-0.3-1.8-0.5-3.4-0.5-3.5c2,4,2.2,9.7,3.1,13.1c0.9,3.4,2.2,3.9,2.8,9.5
				C332.2,192,332.8,193.1,333.4,193.8z"/>
			<path class="st77" d="M343.6,187.5c-0.2,0.2-0.6,0.6-1.2,1l-1.5-9.1l2.3,3.9L343.6,187.5z"/>
			<linearGradient id="SVGID_75_" gradientUnits="userSpaceOnUse" x1="353.7344" y1="173.1067" x2="342.8596" y2="182.7731">
				<stop  offset="0" style="stop-color:#DFC7FF"/>
				<stop  offset="1" style="stop-color:#FFFFFF"/>
			</linearGradient>
			<path class="st100" d="M349.4,185.6c0,0-2.4,3.8-4.9,4.9c0,0-1.4-5-3.6-11.1c0,0,5.5-5.3,6.3-10.1L349.4,185.6z"/>
			<linearGradient id="SVGID_76_" gradientUnits="userSpaceOnUse" x1="361.4446" y1="220.3074" x2="352.0802" y2="174.0896">
				<stop  offset="0" style="stop-color:#DFD5A2"/>
				<stop  offset="1" style="stop-color:#EDDA4A"/>
			</linearGradient>
			<path class="st101" d="M371.7,205.5c-7.2,8.2-26,8.3-26,8.3c1.6-6,3-21,1.9-29.7c-1.1-8.7-1.3-15.1-1.3-15.1l0-0.2
				c4.8-1,6.8-3.8,7.6-5.3c6.7,4.1,10.9,11.1,13.5,18.3c1.7,4.7,2.7,9.4,3.3,13.4C371.6,201.2,371.7,205.5,371.7,205.5z"/>
			<path class="st77" d="M345.8,165l-0.3-2.5c0,0-0.4,0.3-1,0.7c0.9-0.8,1.9-1.9,2.6-3.5C347.2,159.7,347.3,162.6,345.8,165z"/>
			<path class="st77" d="M343.2,151.1c-2.3,0.5-4.9,0.3-6.2,0.2c0-0.2,0-0.3,0-0.3c4.1-0.4,5.7-1.8,5.7-1.8
				C342.8,150,343,150.6,343.2,151.1z"/>
			<linearGradient id="SVGID_77_" gradientUnits="userSpaceOnUse" x1="372.9717" y1="159.3265" x2="344.4484" y2="235.1046">
				<stop  offset="0" style="stop-color:#D5A734"/>
				<stop  offset="1" style="stop-color:#DEC17F;stop-opacity:0"/>
			</linearGradient>
			<path class="st102" d="M370.7,195.2l-11.5,9.9l-3.2-2.9c0,0,5.7-13.8,5.2-15.9c-0.5-2-6-10-6-10c4.4,0.1,8.6,2.5,12.1,5.4
				C369.1,186.5,370.1,191.2,370.7,195.2z"/>
			<linearGradient id="SVGID_78_" gradientUnits="userSpaceOnUse" x1="370.3653" y1="180.5233" x2="357.0739" y2="202.575">
				<stop  offset="0" style="stop-color:#7054F4"/>
				<stop  offset="1" style="stop-color:#8372FF"/>
			</linearGradient>
			<path class="st103" d="M365.5,196.2c-4.7,6.3-6.3,8.9-6.3,8.9s0,0,0.1,0.1c0.2,0.2,0.7,0.7,1,1.2c0.4,0.6,0.6,1.2,0,1.6
				c-2.2,1.4-2.4,2.3-4.3,2.1c-1-0.1-1.4-0.3-1.7-0.7c0,0,0,0,0,0c-0.3-0.4-0.4-0.9-0.5-1.6c-0.2-1.1,0.9-2.4,2.2-5.4
				c1.4-3,3.9-7.8,5.9-12.8c1-2.5,1.7-4.2,2.3-5.2c0,0,0,0,0,0c0,0,0,0,0,0c0-0.1,0.1-0.2,0.1-0.3c0,0,0-0.1,0-0.1
				c0.1-0.3,0.3-0.5,0.3-0.6c0,0,0-0.1,0-0.1c0,0,0,0,0,0c0,0,0,0,0,0c0,0,0,0,0,0c0,0,0,0,0,0c0,0,0,0,0-0.1
				c0.1-0.1,0.1-0.1,0.1-0.1l-1.9-1.2c0,0,0,0,0,0l1.9-3.3l2.4-4.2c0,0,4.5,3.8,5.7,5.8c0.1,0.1,0.1,0.2,0.2,0.3
				C374.2,182.1,370.2,189.9,365.5,196.2z"/>
			<path class="st77" d="M367.9,180.2c-2,1.3-3.4,3.7-3.6,4.1c0-0.1,0.1-0.2,0.1-0.3c0,0,0-0.1,0-0.1c0.1-0.3,0.3-0.5,0.3-0.6
				c0,0,0-0.1,0-0.1c0,0,0,0,0,0c0,0,0,0,0,0c0,0,0,0,0,0c0,0,0,0,0,0c0,0,0,0,0-0.1c0.1-0.1,0.1-0.1,0.1-0.1l-1.9-1.2c0,0,0,0,0,0
				c0-0.1,0.9-3.4,1.9-3.3c0.2,0,0.4,0.1,0.5,0.3C366.9,180.4,367.9,180.2,367.9,180.2z"/>
			<linearGradient id="SVGID_79_" gradientUnits="userSpaceOnUse" x1="354.3797" y1="208.2645" x2="360.7151" y2="208.2645">
				<stop  offset="0" style="stop-color:#D22E8A"/>
				<stop  offset="1" style="stop-color:#D22E8A;stop-opacity:0"/>
			</linearGradient>
			<path class="st104" d="M360.4,208c-2.2,1.4-2.4,2.3-4.3,2.1c-1-0.1-1.4-0.3-1.7-0.7c0,0,0,0,0,0c0.7,0.6,3.2,0.5,4.3-1
				c0.4-0.6,1.1-1.3,1.7-2C360.7,207,360.9,207.6,360.4,208z"/>
			<path class="st77" d="M365.5,196.2c-4.7,6.3-6.3,8.9-6.3,8.9s0,0,0.1,0.1c-1.1,0.8-1.8,1.5-1.8,1.5c1.4-2.4,5.4-9.5,6.7-12.2
				c1.3-2.8,2.1-4.5,6.1-9.5c1.7-2.2,2.5-3.8,2.9-5c0.1,0.1,0.1,0.2,0.2,0.3C374.2,182.1,370.2,189.9,365.5,196.2z"/>
			<linearGradient id="SVGID_80_" gradientUnits="userSpaceOnUse" x1="356.3065" y1="156.2507" x2="362.046" y2="180.719">
				<stop  offset="0" style="stop-color:#DFC7FF"/>
				<stop  offset="1" style="stop-color:#FFFFFF"/>
			</linearGradient>
			<path class="st105" d="M368.2,173.8c0,0-9.7-7.6-13.6-6.2c-3.9,1.4-2.8,6.1,0,8.3c2.8,2.2,5,4,8.5,7.7
				C363.1,183.6,368.2,177.9,368.2,173.8z"/>
		</g>
		<g>
			<path class="st72" d="M259.7,351h-11.9c-0.5,0-0.3-3.7,0.2-6.8c1.5,2.1,2.7,1.6,3.6,0.5c0.4-0.5,1.3-1.1,1.9-1.5
				c0.2-0.1,0.5,0.1,0.5,0.4c-0.2,1.3,0,2.4,0.2,2.7c0.3,0.6,8.9,2.4,9.7,2.3C264.8,348.4,266.4,351,259.7,351z"/>
			<linearGradient id="SVGID_81_" gradientUnits="userSpaceOnUse" x1="248.0362" y1="343.7254" x2="253.7042" y2="343.7254">
				<stop  offset="0" style="stop-color:#7054F4"/>
				<stop  offset="1" style="stop-color:#8372FF"/>
			</linearGradient>
			<path class="st106" d="M253.7,343.2c-0.6,0.2-1.5,0.7-2.1,1.4c-0.9,1.1-2.1,1.9-3.6-0.2c0.1-0.9,0-2.1,0.2-2.8h5.4
				C253.6,341.7,253.6,342.4,253.7,343.2z"/>
			<path class="st72" d="M241.5,351h-11.9c-0.5,0-0.3-3.7,0.2-6.8c1.5,2.1,2.7,1.6,3.6,0.5c0.4-0.5,1.3-1.1,1.9-1.5
				c0.2-0.1,0.5,0.1,0.5,0.4c-0.2,1.3,0,2.4,0.2,2.7c0.3,0.6,8.9,2.4,9.7,2.3C246.6,348.4,248.2,351,241.5,351z"/>
			<linearGradient id="SVGID_82_" gradientUnits="userSpaceOnUse" x1="229.8586" y1="343.253" x2="235.5266" y2="343.253">
				<stop  offset="0" style="stop-color:#7054F4"/>
				<stop  offset="1" style="stop-color:#8372FF"/>
			</linearGradient>
			<path class="st107" d="M235.5,343.2c-0.6,0.2-1.5,0.7-2.1,1.4c-0.9,1.1-2.1,1.9-3.6-0.2c0.1-0.9,0.2-3,0.4-3.7l5.1,0.9
				C235.4,341.7,235.4,342.4,235.5,343.2z"/>
			<path class="st108" d="M274.6,177.5l-1.7,17.3l-5,16.6l-0.5-4.4l-15.1-2.1l3.9-29.1c0.1-0.5,0.6-0.9,1.1-0.9l16.3,1.4
				C274.2,176.4,274.6,176.9,274.6,177.5z"/>
			<polygon class="st66" points="271.6,178.2 270.4,194.3 266.7,208.8 266.3,204.9 255.1,203.1 258.1,177.2 			"/>
			<path class="st109" d="M270.8,174.8l-0.1,1l-0.1,0.6c0,0.4-0.4,0.6-0.7,0.6l-8.7-0.9c-0.4,0-0.6-0.4-0.6-0.7l0-0.5l0.1-1.1
				c0-0.4,0.4-0.6,0.7-0.6l8.7,0.9C270.6,174.1,270.9,174.5,270.8,174.8z"/>
			<path class="st110" d="M270.7,175.8l-0.1,0.6c0,0.4-0.4,0.6-0.7,0.6l-8.7-0.9c-0.4,0-0.6-0.4-0.6-0.7l0-0.5
				C260.8,174.9,270.7,175.8,270.7,175.8z"/>
			<linearGradient id="SVGID_83_" gradientUnits="userSpaceOnUse" x1="251.421" y1="189.6017" x2="258.5722" y2="189.6017">
				<stop  offset="0" style="stop-color:#7054F4"/>
				<stop  offset="1" style="stop-color:#8372FF"/>
			</linearGradient>
			<path class="st111" d="M256.4,193.4c0,0,1.5-1.6,1.8-2.1c0.3-0.5,0.5-2.1,0.3-2.6c-0.2-0.5-1.4,1.8-2,2.2
				c-0.6,0.4-2.7,0.7-2.7,0.7l1.2-6.9c0,0-1,0.6-1.2,1.3c-0.2,0.6-1.6,3.9-2.1,5.4c-0.5,1.5-0.2,3.2-0.2,3.2L256.4,193.4z"/>
			<linearGradient id="SVGID_84_" gradientUnits="userSpaceOnUse" x1="236.671" y1="181.3621" x2="252.3139" y2="181.3621">
				<stop  offset="0" style="stop-color:#7054F4"/>
				<stop  offset="1" style="stop-color:#8372FF"/>
			</linearGradient>
			<path class="st112" d="M251.5,171.9c0.1,1.3,0.3,7.3-0.1,10.8c-0.3,2.5-0.6,4.2-1.1,5c-0.2,0.5-0.5,0.7-0.9,0.8
				c-1,0.2-2.8,0-2.8,0s-0.1,0.4-0.2,1.1c-0.2,1.3-0.4,3.4,0.2,4.5c0.8,1.6-10.1,1-10.1,1s0.5-6.5,0.8-9.7
				c0.3-3.2,4.9-15.7,4.9-15.7l5.5-1.2l3.8-0.9c0,0,1.6,1.3-0.1,4.2C251.5,171.7,251.5,171.8,251.5,171.9z"/>
			<path class="st77" d="M250.4,187.8c-0.2,0.5-0.5,0.7-0.9,0.8c-1,0.2-2.8,0-2.8,0s-0.1,0.4-0.2,1.1c-1.9-1.7-2.1-5.3-2.1-5.3
				s1.1,1.9,3.2,3.1C248.7,188,249.7,188,250.4,187.8z"/>
			<path class="st77" d="M246.4,174c0,0,5.5-0.8,6.7-4.1c1.1-3.2-4.7-2.9-4.7-2.9l-2.6,6.5L246.4,174z"/>
			<linearGradient id="SVGID_85_" gradientUnits="userSpaceOnUse" x1="264.6929" y1="213.0342" x2="274.0367" y2="189.774">
				<stop  offset="0" style="stop-color:#7054F4"/>
				<stop  offset="1" style="stop-color:#8372FF"/>
			</linearGradient>
			<path class="st113" d="M276.4,189.1c-0.2,1.5-2.8,5.5-2.6,8.6c0.2,3.1-0.8,12.7-0.8,12.7l-3.5-2.4l-3.1-2.1c0,0,3-7.7,2.8-9.3
				c-0.2-1.6-2.2-4.2-2.1-5.2c0,0,0-0.1,0-0.1c0.1-1.6,0-3.1,0.6-3.9c0.6-0.8,0.6,2.4,1.8,4.2c0.7,1.1,2.6,0,3.7-1.6
				c1.1-1.6,0.6-4.5,0.6-4.5l0.2-2.9C274.2,182.4,276.6,187.6,276.4,189.1z"/>
			<path class="st77" d="M270.3,198.5c-0.8,1.9-2.1,7.7-0.7,9.5l-3.1-2.1c0,0,3-7.7,2.8-9.3c-0.2-1.6-2.2-4.2-2.1-5.2
				c0,0,0-0.1,0-0.1c0.3,0.7,0.8,1.7,1.8,2.6C270.9,195.6,271.1,196.6,270.3,198.5z"/>
			<linearGradient id="SVGID_86_" gradientUnits="userSpaceOnUse" x1="235.6443" y1="267.7911" x2="226.3808" y2="339.4968">
				<stop  offset="0" style="stop-color:#2B1CB8"/>
				<stop  offset="1" style="stop-color:#3326B0"/>
			</linearGradient>
			<path class="st114" d="M243.9,266.5l-8.5,75.3h-5.3c0,0-5.2-24.5-2.9-37c2.3-12.5,2-25.6,1.2-34.2c-0.7-7.5-1.9-19.2,3.9-29.2
				C238.1,231.3,243.9,266.5,243.9,266.5z"/>
			<linearGradient id="SVGID_87_" gradientUnits="userSpaceOnUse" x1="255.106" y1="224.2261" x2="244.3689" y2="307.3389">
				<stop  offset="0" style="stop-color:#2B1CB8"/>
				<stop  offset="1" style="stop-color:#3326B0"/>
			</linearGradient>
			<path class="st115" d="M259.7,244.6l-6.2,97.1h-5.4c0,0-5.7-23.4-4.2-35.1c1.5-11.7,0.5-18.5-1.6-32.8s-5-18.7-3.1-32.5
				C240.1,235.2,259.7,244.6,259.7,244.6z"/>
			<linearGradient id="SVGID_88_" gradientUnits="userSpaceOnUse" x1="243.1435" y1="262.2034" x2="250.1593" y2="189.8523">
				<stop  offset="0" style="stop-color:#DFD5A2"/>
				<stop  offset="1" style="stop-color:#EDDA4A"/>
			</linearGradient>
			<path class="st116" d="M273.4,208.2c-0.7,4.4-2.2,13.3-4.3,16.5c-0.4,0.6-0.9,1.1-1.3,1.2c-2.9,0.8-6.8-6.7-6.8-6.7
				c0.2,10.2-1.1,25-1.1,25c-2.5,1.4-5.1,2.4-7.7,3.1c-11.3,3.1-22.8,0.6-22.8,0.6l1.5-13.7c0,0,0,0,0,0l0.3-2.3
				c0,0-0.6,1.3-2.7,1.7c-0.7,0.1-1.5,0.2-2.5,0.1c-4.1-0.5-2.4-29.8-1.7-31.7c0.6-1.9,3.6-4.7,12.2-7.8c8.6-3.1,21.7-1.5,23.5-0.9
				c2.1,0.8,4.2,6.9,5.3,11c0.3,1.1,0.5,2,0.7,2.7l0,0c0.1,0.6,0.2,1,0.2,1l0-0.1l0.6-2.3c0,0,0.1,0,0.1,0
				C271.8,206.3,273.4,208.2,273.4,208.2z"/>
			<linearGradient id="SVGID_89_" gradientUnits="userSpaceOnUse" x1="265.0402" y1="205.6642" x2="265.7433" y2="205.6642">
				<stop  offset="0" style="stop-color:#DFD5A2"/>
				<stop  offset="1" style="stop-color:#EDDA4A"/>
			</linearGradient>
			<path class="st117" d="M265,204.3c0.3,1.1,0.5,2,0.7,2.7L265,204.3z"/>
			<linearGradient id="SVGID_90_" gradientUnits="userSpaceOnUse" x1="262.642" y1="188.248" x2="274.1744" y2="246.3077">
				<stop  offset="0" style="stop-color:#DFD5A2"/>
				<stop  offset="1" style="stop-color:#EDDA4A"/>
			</linearGradient>
			<path class="st118" d="M267.8,215.1L266,208l0.6-2.3c0,0,0.1,0,0.1,0L267.8,215.1z"/>
			<linearGradient id="SVGID_91_" gradientUnits="userSpaceOnUse" x1="267.3666" y1="252.544" x2="236.3484" y2="178.1797">
				<stop  offset="0" style="stop-color:#D5A734"/>
				<stop  offset="1" style="stop-color:#DEC17F;stop-opacity:0"/>
			</linearGradient>
			<path class="st119" d="M269,224.8c-0.4,0.6-0.9,1.1-1.3,1.2c-2.9,0.8-6.8-6.7-6.8-6.7c0.2,10.2-1.1,25-1.1,25
				c-2.5,1.4-5.1,2.4-7.7,3.1c-0.5-6.9,1.2-17.7,1.9-24.2c1-9.4-2.8-17.8-2.9-18c0.1,0.2,3.3,4.6,6.2,6.2c2.9,1.6,3.6,2.4,7.1,9.3
				C265.9,223.7,267.7,224.7,269,224.8z"/>
			<linearGradient id="SVGID_92_" gradientUnits="userSpaceOnUse" x1="230.7238" y1="234.3151" x2="230.7286" y2="234.3151">
				<stop  offset="0" style="stop-color:#DFD5A2"/>
				<stop  offset="1" style="stop-color:#EDDA4A"/>
			</linearGradient>
			<path class="st120" d="M230.7,234.3C230.7,234.3,230.7,234.3,230.7,234.3L230.7,234.3z"/>
			<linearGradient id="SVGID_93_" gradientUnits="userSpaceOnUse" x1="228.8057" y1="240.8151" x2="233.18" y2="172.8139">
				<stop  offset="0" style="stop-color:#D5A734"/>
				<stop  offset="1" style="stop-color:#DEC17F;stop-opacity:0"/>
			</linearGradient>
			<path class="st121" d="M230.7,234.3l0.3-2.3c0,0-0.6,1.3-2.7,1.7c0.7-2.6,1.4-6.3,1-8.5c-0.6-3.7-1-6.3,0-11c1-4.6,0-8.3,0-8.4
				C233.3,213.9,230.9,233.3,230.7,234.3z"/>
			<path class="st21" d="M246.6,173.3c0,0,1.5,4.7-0.8,8.3c0,0-0.2-7-2.4-6.3c-2.3,0.6-1.4,5.3-0.5,5.7c0.8,0.3,1.6-0.5,1.6-0.5
				s-0.3,10.2-6.2,9.9c-5.8-0.3-7.1-12.9-7.3-16.4c-0.2-3.6,2.3-8.2,4.6-6.9c0,0-0.6-1.5,1.6-3.8c1.9-2.1,6.7-6.5,13.7-0.8
				c6,4.9,0.7,11.7,0.7,11.7s0.2-2.1-0.5-5C251.1,169.1,249.5,172.4,246.6,173.3z"/>
		</g>
		<g>
			<linearGradient id="SVGID_94_" gradientUnits="userSpaceOnUse" x1="315.6445" y1="347.5929" x2="319.646" y2="333.3523">
				<stop  offset="0" style="stop-color:#DCAE3A"/>
				<stop  offset="1" style="stop-color:#F3CE4D"/>
			</linearGradient>
			<path class="st122" d="M313.5,344.4c0,0,0.4-14.3,5.3-15.4c4.9-1.1,5.6,8.9,0,18.8L313.5,344.4z"/>
			<path class="st123" d="M319.5,332.8c0,0-1,3.5-3.4,13.3"/>
			<linearGradient id="SVGID_95_" gradientUnits="userSpaceOnUse" x1="314.9478" y1="348.0715" x2="310.0047" y2="337.8324">
				<stop  offset="0" style="stop-color:#DFD5A2"/>
				<stop  offset="1" style="stop-color:#EDDA4A"/>
			</linearGradient>
			<path class="st124" d="M311.8,347.8c0,0-7.5-7.3-4.7-10.8c2.8-3.5,9.9,2.6,11.8,10.8H311.8z"/>
			<path class="st123" d="M309.2,339c0,0,3.6,3.4,5.5,7.8"/>
			<linearGradient id="SVGID_96_" gradientUnits="userSpaceOnUse" x1="321.1093" y1="348.7429" x2="322.8746" y2="342.1522">
				<stop  offset="0" style="stop-color:#DFD5A2"/>
				<stop  offset="1" style="stop-color:#EDDA4A"/>
			</linearGradient>
			<path class="st125" d="M318.2,347.8c0,0,1.9-8.3,5.8-7.6c3.9,0.7,0,7.5,0,7.5L318.2,347.8z"/>
			<line class="st123" x1="323.3" y1="341.9" x2="322" y2="346.7"/>
		</g>
		<g>
			<linearGradient id="SVGID_97_" gradientUnits="userSpaceOnUse" x1="188.0566" y1="293.2013" x2="191.2428" y2="281.8621">
				<stop  offset="0" style="stop-color:#DCAE3A"/>
				<stop  offset="1" style="stop-color:#F3CE4D"/>
			</linearGradient>
			<path class="st126" d="M186.4,290.7c0,0,0.3-11.4,4.3-12.3c3.9-0.8,4.5,7.1,0,15L186.4,290.7z"/>
			<path class="st123" d="M191.1,281.4c0,0-0.8,2.8-2.7,10.6"/>
			<linearGradient id="SVGID_98_" gradientUnits="userSpaceOnUse" x1="187.5018" y1="293.5824" x2="183.5658" y2="285.4294">
				<stop  offset="0" style="stop-color:#DFD5A2"/>
				<stop  offset="1" style="stop-color:#EDDA4A"/>
			</linearGradient>
			<path class="st127" d="M185,293.4c0,0-6-5.8-3.7-8.6c2.2-2.8,7.9,2.1,9.4,8.6H185z"/>
			<path class="st123" d="M183,286.3c0,0,2.9,2.7,4.4,6.2"/>
			<linearGradient id="SVGID_99_" gradientUnits="userSpaceOnUse" x1="192.4079" y1="294.117" x2="193.8136" y2="288.8691">
				<stop  offset="0" style="stop-color:#DFD5A2"/>
				<stop  offset="1" style="stop-color:#EDDA4A"/>
			</linearGradient>
			<path class="st128" d="M190.1,293.4c0,0,1.5-6.6,4.6-6c3.1,0.6,0,6,0,6L190.1,293.4z"/>
			<line class="st123" x1="194.2" y1="288.6" x2="193.1" y2="292.5"/>
		</g>
		<g>
			
				<linearGradient id="SVGID_100_" gradientUnits="userSpaceOnUse" x1="397.9998" y1="273.9537" x2="401.1703" y2="262.6707" gradientTransform="matrix(-1 0 0 1 731.505 0)">
				<stop  offset="0" style="stop-color:#DCAE3A"/>
				<stop  offset="1" style="stop-color:#F3CE4D"/>
			</linearGradient>
			<path class="st129" d="M335.2,271.4c0,0-0.3-11.4-4.2-12.2s-4.5,7.1,0,14.9L335.2,271.4z"/>
			<path class="st123" d="M330.5,262.2c0,0,0.8,2.8,2.7,10.5"/>
			
				<linearGradient id="SVGID_101_" gradientUnits="userSpaceOnUse" x1="397.4478" y1="274.3329" x2="393.5314" y2="266.2203" gradientTransform="matrix(-1 0 0 1 731.505 0)">
				<stop  offset="0" style="stop-color:#DFD5A2"/>
				<stop  offset="1" style="stop-color:#EDDA4A"/>
			</linearGradient>
			<path class="st130" d="M336.5,274.1c0,0,6-5.8,3.7-8.6c-2.2-2.8-7.8,2.1-9.3,8.6H336.5z"/>
			<path class="st123" d="M338.6,267.1c0,0-2.9,2.7-4.4,6.2"/>
			
				<linearGradient id="SVGID_102_" gradientUnits="userSpaceOnUse" x1="402.3296" y1="274.8648" x2="403.7283" y2="269.6429" gradientTransform="matrix(-1 0 0 1 731.505 0)">
				<stop  offset="0" style="stop-color:#DFD5A2"/>
				<stop  offset="1" style="stop-color:#EDDA4A"/>
			</linearGradient>
			<path class="st131" d="M331.5,274.1c0,0-1.5-6.6-4.6-6c-3.1,0.6,0,6,0,6L331.5,274.1z"/>
			<line class="st123" x1="327.4" y1="269.4" x2="328.5" y2="273.2"/>
		</g>
	</g>
</g>
<g id="DESIGNED_BY_FREEPIK">
</g>
</svg>
