<svg width="25" height="28" viewBox="0 0 25 28" fill="none" xmlns="http://www.w3.org/2000/svg">
<path fill-rule="evenodd" clip-rule="evenodd" d="M1.19047 1.17158C0.428225 1.92174 0 2.93916 0 4.00004V24C0 25.0608 0.428225 26.0783 1.19047 26.8284C1.56789 27.1999 2.01596 27.4945 2.50909 27.6955C3.00222 27.8965 3.53076 28 4.06452 28H20.3226C21.4006 28 22.4344 27.5786 23.1966 26.8284C23.9589 26.0783 24.3871 25.0608 24.3871 24V9.41421C24.387 8.88379 24.1729 8.37512 23.7918 8.00008L16.2578 0.585893C15.8767 0.210804 15.3598 5.33321e-05 14.8209 0H4.06452C2.98654 0 1.95271 0.421432 1.19047 1.17158ZM14.2264 2.00002V8.00008C14.2264 8.53037 14.4404 9.03896 14.8213 9.41401C15.2022 9.78906 15.7189 9.99988 16.2578 10.0001H22.3546L14.2264 2.00002ZM5.576 15.272V21H6.656V18.896H7.592C7.864 18.896 8.11733 18.8533 8.352 18.768C8.592 18.6773 8.8 18.552 8.976 18.392C9.152 18.232 9.29067 18.0427 9.392 17.824C9.49333 17.6 9.544 17.352 9.544 17.08C9.544 16.8133 9.49333 16.5707 9.392 16.352C9.29067 16.128 9.152 15.936 8.976 15.776C8.8 15.616 8.592 15.4933 8.352 15.408C8.11733 15.3173 7.864 15.272 7.592 15.272H5.576ZM8.248 17.632C8.104 17.792 7.89067 17.872 7.608 17.872H6.656V16.296H7.608C7.752 16.296 7.87733 16.3173 7.984 16.36C8.09067 16.4027 8.17867 16.4613 8.248 16.536C8.32267 16.6053 8.376 16.688 8.408 16.784C8.44533 16.88 8.464 16.9787 8.464 17.08C8.464 17.288 8.392 17.472 8.248 17.632ZM12.2464 15.272H10.3104V21H12.2464C12.6997 21 13.1077 20.9307 13.4704 20.792C13.833 20.6533 14.1424 20.4587 14.3984 20.208C14.6544 19.9573 14.849 19.656 14.9824 19.304C15.121 18.952 15.1904 18.5627 15.1904 18.136C15.1904 17.7147 15.121 17.328 14.9824 16.976C14.849 16.624 14.6544 16.3227 14.3984 16.072C14.1424 15.816 13.833 15.6187 13.4704 15.48C13.1077 15.3413 12.6997 15.272 12.2464 15.272ZM13.0304 19.848C12.7904 19.9333 12.513 19.976 12.1984 19.976H11.3904V16.296H12.1984C12.513 16.296 12.7904 16.3413 13.0304 16.432C13.2704 16.5173 13.4704 16.64 13.6304 16.8C13.7904 16.96 13.9104 17.1547 13.9904 17.384C14.0704 17.608 14.1104 17.8587 14.1104 18.136C14.1104 18.4133 14.0704 18.6667 13.9904 18.896C13.9104 19.12 13.7904 19.312 13.6304 19.472C13.4704 19.632 13.2704 19.7573 13.0304 19.848ZM19.6924 15.272H16.0604V21H17.1404V18.712H19.4364V17.688H17.1404V16.296H19.6924V15.272Z" fill="white"/>
</svg>
