<svg width="148" height="41" viewBox="0 0 148 41" fill="none" xmlns="http://www.w3.org/2000/svg">
<path d="M35.6207 29.1245L28.3531 31.7936L32.3765 39.5447L41.0419 39.5345L35.6207 29.1245Z" fill="#052055"/>
<path d="M20.5187 0.0150757L0 39.5345H8.6702L20.5161 16.6953L24.7871 24.9237L32.0547 22.2547L20.5187 0.0150757Z" fill="#052055"/>
<path d="M8.65142 39.5475L14.2114 28.8422L40.0947 18.9977L8.65142 39.5475Z" fill="#6D5DF3"/>
<path d="M55.2545 34.4358V39.9544H51.9422C49.5816 39.9544 47.7414 39.3772 46.4215 38.2227C45.1015 37.0685 44.4415 35.1846 44.4417 32.571V24.1218H41.8527V18.7174H44.4417V13.5413H50.9523V18.7174H55.2165V24.1218H50.9523V32.6471C50.9523 33.2816 51.1046 33.7383 51.4091 34.0173C51.7137 34.2967 52.2214 34.4362 52.9321 34.4358L55.2545 34.4358Z" fill="#052055"/>
<path d="M58.814 23.5508C59.6386 21.9018 60.7617 20.6332 62.1835 19.745C63.61 18.8555 65.2616 18.3932 66.9427 18.413C68.44 18.413 69.7535 18.7174 70.8832 19.3263C71.9511 19.8785 72.8517 20.7064 73.4913 21.7241V18.7174H80.0019V39.9544H73.4913V36.9478C72.8303 37.9612 71.9189 38.7871 70.8452 39.3455C69.7155 39.9544 68.402 40.2589 66.9046 40.2589C65.2333 40.2748 63.5932 39.8054 62.1835 38.9078C60.7617 38.0074 59.6385 36.7261 58.814 35.0638C57.9889 33.4023 57.5765 31.4803 57.5766 29.2978C57.5766 27.116 57.9891 25.2003 58.814 23.5508ZM72.1397 25.492C71.7142 25.0484 71.2036 24.6951 70.6385 24.4531C70.0733 24.2112 69.4652 24.0855 68.8504 24.0838C68.2356 24.082 67.6268 24.2041 67.0602 24.4428C66.4937 24.6814 65.9811 25.0318 65.553 25.4729C64.6518 26.3993 64.2012 27.6743 64.2014 29.2978C64.2014 30.9219 64.6519 32.2096 65.553 33.1609C65.9754 33.6099 66.4849 33.968 67.0505 34.2134C67.616 34.4588 68.2257 34.5863 68.8422 34.5881C69.4588 34.5899 70.0692 34.4659 70.6362 34.2238C71.2032 33.9817 71.7148 33.6265 72.1397 33.1799C73.0404 32.2415 73.4909 30.9601 73.4913 29.3359C73.4913 27.7125 73.0408 26.4312 72.1397 25.492L72.1397 25.492Z" fill="#052055"/>
<path d="M94.0885 19.4975C95.2425 18.8222 96.5586 18.4735 97.8958 18.489V25.3777H96.1063C94.4817 25.3777 93.2633 25.7266 92.4513 26.4244C91.6386 27.1225 91.2325 28.3467 91.233 30.0971V39.9544H84.7224V18.7174H91.233V22.2568C91.9563 21.1269 92.9342 20.1819 94.0885 19.4975Z" fill="#052055"/>
<path d="M101.493 15.5013C101.144 15.188 100.866 14.8032 100.679 14.373C100.492 13.9429 100.4 13.4774 100.408 13.0084C100.397 12.5334 100.488 12.0616 100.675 11.6249C100.863 11.1882 101.142 10.7969 101.493 10.4775C102.217 9.80549 103.15 9.4693 104.292 9.46898C105.409 9.46898 106.329 9.80517 107.052 10.4775C107.404 10.7969 107.683 11.1882 107.87 11.6249C108.058 12.0616 108.149 12.5334 108.137 13.0084C108.146 13.4774 108.054 13.9429 107.866 14.373C107.679 14.8032 107.402 15.188 107.052 15.5013C106.329 16.1739 105.409 16.5101 104.292 16.5099C103.15 16.5099 102.217 16.1737 101.493 15.5013ZM107.528 18.7174V39.9544H101.018V18.7174H107.528Z" fill="#052055"/>
<path d="M145.659 20.8867C147.22 22.4852 148 24.7053 148 27.5472V39.9544H141.528V28.4225C141.528 27.0523 141.166 25.993 140.443 25.2445C139.719 24.4964 138.723 24.1222 137.454 24.1218C136.184 24.1218 135.188 24.496 134.465 25.2445C133.742 25.9932 133.38 27.0525 133.38 28.4225V39.9544H126.907V28.4225C126.907 27.0523 126.546 25.993 125.822 25.2445C125.099 24.4964 124.103 24.1222 122.833 24.1218C121.564 24.1218 120.568 24.496 119.845 25.2445C119.121 25.9932 118.76 27.0525 118.76 28.4225V39.9544H112.249V18.7174H118.76V21.3816C119.439 20.4781 120.327 19.7531 121.349 19.2692C122.478 18.7352 123.716 18.4682 124.966 18.489C126.565 18.489 127.993 18.8315 129.249 19.5166C130.493 20.1901 131.518 21.2075 132.199 22.4472C132.953 21.2637 133.986 20.2834 135.207 19.5927C136.467 18.8595 137.9 18.4782 139.357 18.489C141.997 18.489 144.097 19.2882 145.659 20.8867Z" fill="#052055"/>
</svg>
