<svg width="20" height="20" viewBox="0 0 20 20" fill="none" xmlns="http://www.w3.org/2000/svg">
<path d="M5.625 20H2.5C1.83696 20 1.20107 19.7366 0.732233 19.2678C0.263392 18.7989 0 18.163 0 17.5V10C0 9.33696 0.263392 8.70107 0.732233 8.23223C1.20107 7.76339 1.83696 7.5 2.5 7.5H5.625C6.28804 7.5 6.92393 7.76339 7.39277 8.23223C7.86161 8.70107 8.125 9.33696 8.125 10V17.5C8.125 18.163 7.86161 18.7989 7.39277 19.2678C6.92393 19.7366 6.28804 20 5.625 20ZM2.5 8.75C2.16848 8.75 1.85054 8.8817 1.61612 9.11612C1.3817 9.35054 1.25 9.66848 1.25 10V17.5C1.25 17.8315 1.3817 18.1495 1.61612 18.3839C1.85054 18.6183 2.16848 18.75 2.5 18.75H5.625C5.95652 18.75 6.27446 18.6183 6.50888 18.3839C6.7433 18.1495 6.875 17.8315 6.875 17.5V10C6.875 9.66848 6.7433 9.35054 6.50888 9.11612C6.27446 8.8817 5.95652 8.75 5.625 8.75H2.5Z" fill="#8791B2"/>
<path d="M4.0625 18.125C4.022 18.1296 3.98112 18.1296 3.94062 18.125C3.8999 18.1179 3.86007 18.1064 3.82187 18.0906C3.7848 18.074 3.74925 18.0541 3.71563 18.0312C3.64841 17.9848 3.59017 17.9266 3.54375 17.8594C3.52096 17.8257 3.5011 17.7902 3.48437 17.7531C3.46859 17.7149 3.45706 17.6751 3.45 17.6344C3.43332 17.554 3.43332 17.471 3.45 17.3906C3.45706 17.3499 3.46859 17.3101 3.48437 17.2719C3.5011 17.2348 3.52096 17.1993 3.54375 17.1656C3.59017 17.0984 3.64841 17.0402 3.71563 16.9938C3.74928 16.971 3.78483 16.9511 3.82187 16.9344C3.86007 16.9186 3.8999 16.9071 3.94062 16.9C4.02109 16.884 4.10391 16.884 4.18438 16.9C4.2251 16.9071 4.26493 16.9186 4.30313 16.9344C4.34017 16.9511 4.37572 16.971 4.40937 16.9938C4.47659 17.0402 4.53483 17.0984 4.58125 17.1656C4.60522 17.1985 4.62515 17.2342 4.64062 17.2719C4.65641 17.3101 4.66794 17.3499 4.675 17.3906C4.69168 17.471 4.69168 17.554 4.675 17.6344C4.66794 17.6751 4.65641 17.7149 4.64062 17.7531C4.62515 17.7908 4.60522 17.8265 4.58125 17.8594C4.53483 17.9266 4.47659 17.9848 4.40937 18.0312C4.37576 18.0541 4.34021 18.074 4.30313 18.0906C4.26493 18.1064 4.2251 18.1179 4.18438 18.125C4.14388 18.1296 4.103 18.1296 4.0625 18.125ZM17.5 16.25H7.5V15H17.5C17.8315 15 18.1495 14.8683 18.3839 14.6339C18.6183 14.3995 18.75 14.0815 18.75 13.75V3.75C18.75 3.41848 18.6183 3.10054 18.3839 2.86612C18.1495 2.6317 17.8315 2.5 17.5 2.5H5C4.66848 2.5 4.35054 2.6317 4.11612 2.86612C3.8817 3.10054 3.75 3.41848 3.75 3.75V8.125H2.5V3.75C2.5 3.08696 2.76339 2.45107 3.23223 1.98223C3.70107 1.51339 4.33696 1.25 5 1.25H17.5C18.163 1.25 18.7989 1.51339 19.2678 1.98223C19.7366 2.45107 20 3.08696 20 3.75V13.75C20 14.413 19.7366 15.0489 19.2678 15.5178C18.7989 15.9866 18.163 16.25 17.5 16.25Z" fill="#8791B2"/>
<path d="M11.25 14.375C11.0842 14.375 10.9253 14.3092 10.8081 14.192C10.6908 14.0748 10.625 13.9158 10.625 13.75C10.6204 13.7095 10.6204 13.6686 10.625 13.6281C10.6387 13.547 10.6708 13.47 10.7187 13.4031C10.7402 13.3692 10.7654 13.3378 10.7938 13.3094C10.8665 13.2321 10.9578 13.1746 11.0589 13.1423C11.1601 13.1101 11.2678 13.1041 11.3719 13.125C11.4113 13.1331 11.45 13.1446 11.4875 13.1594C11.5258 13.1755 11.5625 13.1954 11.5969 13.2188C11.6316 13.2403 11.6631 13.2666 11.6906 13.2969C11.7502 13.3561 11.7973 13.4268 11.829 13.5047C11.8607 13.5825 11.8763 13.666 11.875 13.75C11.875 13.9158 11.8092 14.0748 11.6919 14.192C11.5747 14.3092 11.4158 14.375 11.25 14.375ZM14.375 18.75H8.125C7.95924 18.75 7.80027 18.6842 7.68306 18.567C7.56585 18.4498 7.5 18.2908 7.5 18.125C7.5 17.9593 7.56585 17.8003 7.68306 17.6831C7.80027 17.5659 7.95924 17.5 8.125 17.5H14.375C14.5408 17.5 14.6997 17.5659 14.8169 17.6831C14.9342 17.8003 15 17.9593 15 18.125C15 18.2908 14.9342 18.4498 14.8169 18.567C14.6997 18.6842 14.5408 18.75 14.375 18.75Z" fill="#8791B2"/>
<path d="M13.125 18.75C12.9592 18.75 12.8003 18.6842 12.6831 18.5669C12.5658 18.4497 12.5 18.2908 12.5 18.125V15.625C12.5 15.4592 12.5658 15.3003 12.6831 15.1831C12.8003 15.0658 12.9592 15 13.125 15C13.2908 15 13.4497 15.0658 13.5669 15.1831C13.6842 15.3003 13.75 15.4592 13.75 15.625V18.125C13.75 18.2908 13.6842 18.4497 13.5669 18.5669C13.4497 18.6842 13.2908 18.75 13.125 18.75ZM9.375 18.75C9.20924 18.75 9.05027 18.6842 8.93306 18.5669C8.81585 18.4497 8.75 18.2908 8.75 18.125V15.625C8.75 15.4592 8.81585 15.3003 8.93306 15.1831C9.05027 15.0658 9.20924 15 9.375 15C9.54076 15 9.69973 15.0658 9.81694 15.1831C9.93415 15.3003 10 15.4592 10 15.625V18.125C10 18.2908 9.93415 18.4497 9.81694 18.5669C9.69973 18.6842 9.54076 18.75 9.375 18.75Z" fill="#8791B2"/>
</svg>
