<svg width="20" height="20" viewBox="0 0 20 20" fill="none" xmlns="http://www.w3.org/2000/svg">
<path d="M4.58336 12.4999C5.3126 12.4958 6.014 12.2194 6.55002 11.7249L11.7667 14.7083C11.7002 14.9385 11.6666 15.177 11.6667 15.4166C11.6613 16.0929 11.8892 16.7504 12.3118 17.2783C12.7345 17.8063 13.3262 18.1725 13.9873 18.3153C14.6483 18.458 15.3384 18.3687 15.9413 18.0622C16.5442 17.7557 17.023 17.2509 17.2973 16.6327C17.5715 16.0145 17.6243 15.3206 17.4469 14.668C17.2694 14.0154 16.8725 13.4439 16.323 13.0497C15.7734 12.6554 15.1049 12.4626 14.4298 12.5037C13.7547 12.5447 13.1144 12.8171 12.6167 13.2749L7.40002 10.2916C7.46298 10.0863 7.49665 9.87304 7.50002 9.65828L12.625 6.72494C13.1201 7.17231 13.7539 7.43585 14.4202 7.47136C15.0865 7.50687 15.7447 7.3122 16.2845 6.91999C16.8243 6.52777 17.2128 5.96188 17.3849 5.31721C17.557 4.67254 17.5022 3.98831 17.2297 3.37926C16.9571 2.77021 16.4835 2.2734 15.8881 1.97213C15.2927 1.67087 14.6119 1.58349 13.9598 1.72463C13.3076 1.86578 12.7238 2.22687 12.3063 2.74735C11.8888 3.26783 11.663 3.91605 11.6667 4.58328C11.6695 4.8227 11.7031 5.06077 11.7667 5.29161L7.02502 7.99994C6.75028 7.57491 6.36967 7.22868 5.92059 6.99528C5.47152 6.76189 4.96944 6.64936 4.46371 6.66877C3.95798 6.68817 3.466 6.83884 3.03613 7.10596C2.60627 7.37308 2.2533 7.74746 2.01193 8.19229C1.77057 8.63713 1.64911 9.13712 1.65949 9.64312C1.66987 10.1491 1.81174 10.6437 2.07115 11.0783C2.33056 11.5128 2.69858 11.8724 3.13905 12.1217C3.57951 12.3709 4.07726 12.5013 4.58336 12.4999ZM14.5834 14.1666C14.8306 14.1666 15.0723 14.2399 15.2778 14.3773C15.4834 14.5146 15.6436 14.7098 15.7382 14.9383C15.8328 15.1667 15.8576 15.418 15.8093 15.6605C15.7611 15.9029 15.6421 16.1257 15.4672 16.3005C15.2924 16.4753 15.0697 16.5944 14.8272 16.6426C14.5847 16.6908 14.3334 16.6661 14.105 16.5715C13.8766 16.4768 13.6814 16.3166 13.544 16.1111C13.4067 15.9055 13.3334 15.6638 13.3334 15.4166C13.3334 15.0851 13.4651 14.7671 13.6995 14.5327C13.9339 14.2983 14.2518 14.1666 14.5834 14.1666ZM14.5834 3.33328C14.8306 3.33328 15.0723 3.40659 15.2778 3.54394C15.4834 3.68129 15.6436 3.87652 15.7382 4.10492C15.8328 4.33333 15.8576 4.58466 15.8093 4.82714C15.7611 5.06962 15.6421 5.29235 15.4672 5.46716C15.2924 5.64198 15.0697 5.76103 14.8272 5.80926C14.5847 5.85749 14.3334 5.83274 14.105 5.73813C13.8766 5.64352 13.6814 5.4833 13.544 5.27774C13.4067 5.07218 13.3334 4.8305 13.3334 4.58328C13.3334 4.25176 13.4651 3.93382 13.6995 3.69939C13.9339 3.46497 14.2518 3.33328 14.5834 3.33328ZM4.58336 8.33328C4.83058 8.33328 5.07226 8.40659 5.27782 8.54394C5.48338 8.68129 5.6436 8.87652 5.73821 9.10492C5.83282 9.33333 5.85757 9.58466 5.80934 9.82714C5.76111 10.0696 5.64206 10.2923 5.46724 10.4672C5.29243 10.642 5.0697 10.761 4.82722 10.8093C4.58474 10.8575 4.33341 10.8327 4.105 10.7381C3.8766 10.6435 3.68137 10.4833 3.54402 10.2777C3.40667 10.0722 3.33336 9.8305 3.33336 9.58328C3.33336 9.25176 3.46505 8.93381 3.69947 8.69939C3.93389 8.46497 4.25184 8.33328 4.58336 8.33328Z" fill="#8791B2"/>
</svg>
