<svg width="20" height="20" viewBox="0 0 20 20" fill="none" xmlns="http://www.w3.org/2000/svg">
<g id="Frame" clip-path="url(#clip0_4992_10696)">
<path id="Vector" d="M17.5 2.5C17.8315 2.5 18.1495 2.6317 18.3839 2.86612C18.6183 3.10054 18.75 3.41848 18.75 3.75V16.25C18.75 16.5815 18.6183 16.8995 18.3839 17.1339C18.1495 17.3683 17.8315 17.5 17.5 17.5H2.5C2.16848 17.5 1.85054 17.3683 1.61612 17.1339C1.3817 16.8995 1.25 16.5815 1.25 16.25V3.75C1.25 3.41848 1.3817 3.10054 1.61612 2.86612C1.85054 2.6317 2.16848 2.5 2.5 2.5H17.5ZM2.5 1.25C1.83696 1.25 1.20107 1.51339 0.732233 1.98223C0.263392 2.45107 0 3.08696 0 3.75L0 16.25C0 16.913 0.263392 17.5489 0.732233 18.0178C1.20107 18.4866 1.83696 18.75 2.5 18.75H17.5C18.163 18.75 18.7989 18.4866 19.2678 18.0178C19.7366 17.5489 20 16.913 20 16.25V3.75C20 3.08696 19.7366 2.45107 19.2678 1.98223C18.7989 1.51339 18.163 1.25 17.5 1.25H2.5Z" fill="#8791B2"/>
<path id="Vector_2" d="M3.75 5C3.75 4.66848 3.8817 4.35054 4.11612 4.11612C4.35054 3.8817 4.66848 3.75 5 3.75H7.5C7.83152 3.75 8.14946 3.8817 8.38388 4.11612C8.6183 4.35054 8.75 4.66848 8.75 5V15C8.75 15.3315 8.6183 15.6495 8.38388 15.8839C8.14946 16.1183 7.83152 16.25 7.5 16.25H5C4.66848 16.25 4.35054 16.1183 4.11612 15.8839C3.8817 15.6495 3.75 15.3315 3.75 15V5Z" fill="#8791B2"/>
</g>
<defs>
<clipPath id="clip0_4992_10696">
<rect width="20" height="20" fill="white"/>
</clipPath>
</defs>
</svg>
