<svg width="14" height="18" viewBox="0 0 14 18" fill="none" xmlns="http://www.w3.org/2000/svg">
<path d="M12.625 0.25H1.375C0.685547 0.25 0.125 0.810547 0.125 1.5V16.5C0.125 17.1895 0.685547 17.75 1.375 17.75H12.625C13.3145 17.75 13.875 17.1895 13.875 16.5V1.5C13.875 0.810547 13.3145 0.25 12.625 0.25ZM12.4688 16.3438H1.53125V1.65625H12.4688V16.3438ZM6.21875 14.3125C6.21875 14.5197 6.30106 14.7184 6.44757 14.8649C6.59409 15.0114 6.7928 15.0938 7 15.0938C7.2072 15.0938 7.40591 15.0114 7.55243 14.8649C7.69894 14.7184 7.78125 14.5197 7.78125 14.3125C7.78125 14.1053 7.69894 13.9066 7.55243 13.7601C7.40591 13.6136 7.2072 13.5312 7 13.5312C6.7928 13.5312 6.59409 13.6136 6.44757 13.7601C6.30106 13.9066 6.21875 14.1053 6.21875 14.3125Z" fill="#8791B2"/>
</svg>
