<svg width="25" height="28" viewBox="0 0 25 28" fill="none" xmlns="http://www.w3.org/2000/svg">
<path fill-rule="evenodd" clip-rule="evenodd" d="M1.19047 1.17158C0.428225 1.92174 0 2.93916 0 4.00004V24C0 25.0608 0.428225 26.0783 1.19047 26.8284C1.56789 27.1999 2.01596 27.4945 2.50909 27.6955C3.00222 27.8965 3.53076 28 4.06452 28H20.3226C21.4006 28 22.4344 27.5786 23.1966 26.8284C23.9589 26.0783 24.3871 25.0608 24.3871 24V9.41421C24.387 8.88379 24.1729 8.37512 23.7918 8.00008L16.2578 0.585893C15.8767 0.210804 15.3598 5.33321e-05 14.8209 0H4.06452C2.98654 0 1.95271 0.421432 1.19047 1.17158ZM14.2264 2.00002V8.00008C14.2264 8.53037 14.4404 9.03896 14.8213 9.41401C15.2022 9.78906 15.7189 9.99988 16.2578 10.0001H22.3546L14.2264 2.00002ZM6.792 16.296V21H7.872V16.296H9.472V15.272H5.192V16.296H6.792ZM9.93606 15.272L11.6721 18.008L9.79206 21H11.1361L12.3841 18.936H12.4481L13.6961 21H15.0401L13.1601 18.008L14.8961 15.272H13.5601L12.4481 17.144H12.3841L11.2721 15.272H9.93606ZM16.9639 16.296V21H18.0439V16.296H19.6439V15.272H15.3639V16.296H16.9639Z" fill="white"/>
</svg>
