<svg width="25" height="28" viewBox="0 0 25 28" fill="none" xmlns="http://www.w3.org/2000/svg">
<path fill-rule="evenodd" clip-rule="evenodd" d="M0 4.00004C0 2.93916 0.428225 1.92174 1.19047 1.17158C1.95271 0.421432 2.98654 0 4.06452 0H14.8209C15.3598 5.33321e-05 15.8767 0.210804 16.2578 0.585893L23.7918 8.00008C24.1729 8.37512 24.387 8.88379 24.3871 9.41421V24C24.3871 25.0608 23.9589 26.0783 23.1966 26.8284C22.4344 27.5786 21.4006 28 20.3226 28H4.06452C3.53076 28 3.00222 27.8965 2.50909 27.6955C2.01596 27.4945 1.56789 27.1999 1.19047 26.8284C0.428225 26.0783 0 25.0608 0 24V4.00004ZM14.2264 8.00008V2.00002L22.3546 10.0001H16.2578C15.7189 9.99988 15.2022 9.78906 14.8213 9.41401C14.4404 9.03896 14.2264 8.53037 14.2264 8.00008ZM10.0932 22.1944C9.17705 22.7557 8 22.0964 8 21.0219V12.4548C8 11.3803 9.17705 10.721 10.0932 11.2823L17.086 15.5659C17.9616 16.1023 17.9616 17.3744 17.086 17.9109L10.0932 22.1944Z" fill="white"/>
</svg>
