<svg width="25" height="28" viewBox="0 0 25 28" fill="none" xmlns="http://www.w3.org/2000/svg">
<path fill-rule="evenodd" clip-rule="evenodd" d="M1.19047 1.17158C0.428225 1.92174 0 2.93916 0 4.00004V24C0 25.0608 0.428225 26.0783 1.19047 26.8284C1.56789 27.1999 2.01596 27.4945 2.50909 27.6955C3.00222 27.8965 3.53076 28 4.06452 28H20.3226C21.4006 28 22.4344 27.5786 23.1966 26.8284C23.9589 26.0783 24.3871 25.0608 24.3871 24V9.41421C24.387 8.88379 24.1729 8.37512 23.7918 8.00008L16.2578 0.585893C15.8767 0.210804 15.3598 5.33321e-05 14.8209 0H4.06452C2.98654 0 1.95271 0.421432 1.19047 1.17158ZM14.2264 2.00002V8.00008C14.2264 8.53037 14.4404 9.03896 14.8213 9.41401C15.2022 9.78906 15.7189 9.99988 16.2578 10.0001H22.3546L14.2264 2.00002ZM9.16 16.296L6.256 19.912V21H10.448V19.976H7.544L10.416 16.36V15.272H6.384V16.296H9.16ZM12.4216 15.272H11.3416V21H12.4216V15.272ZM13.576 15.272V21H14.656V18.896H15.592C15.864 18.896 16.1173 18.8533 16.352 18.768C16.592 18.6773 16.8 18.552 16.976 18.392C17.152 18.232 17.2907 18.0427 17.392 17.824C17.4933 17.6 17.544 17.352 17.544 17.08C17.544 16.8133 17.4933 16.5707 17.392 16.352C17.2907 16.128 17.152 15.936 16.976 15.776C16.8 15.616 16.592 15.4933 16.352 15.408C16.1173 15.3173 15.864 15.272 15.592 15.272H13.576ZM16.248 17.632C16.104 17.792 15.8907 17.872 15.608 17.872H14.656V16.296H15.608C15.752 16.296 15.8773 16.3173 15.984 16.36C16.0907 16.4027 16.1787 16.4613 16.248 16.536C16.3227 16.6053 16.376 16.688 16.408 16.784C16.4453 16.88 16.464 16.9787 16.464 17.08C16.464 17.288 16.392 17.472 16.248 17.632Z" fill="white"/>
</svg>
